<svg width="32" height="32" viewBox="0 0 32 32" fill="none" xmlns="http://www.w3.org/2000/svg">
<path fill-rule="evenodd" clip-rule="evenodd" d="M8.33464 17.3333C13.76 17.3333 14.0013 19.1733 14.0013 23C14.0013 24.9173 14.0013 26.2813 13.196 27.28C12.2693 28.4307 10.5826 28.6667 8.33464 28.6667C6.08664 28.6667 4.39997 28.4307 3.4733 27.28C2.66797 26.2813 2.66797 24.9187 2.66797 23.0333V23C2.66797 19.1733 2.9093 17.3333 8.33464 17.3333ZM8.60952 19.3339L8.33464 19.3333C4.856 19.3333 4.67761 19.583 4.66846 22.5027L4.66902 23.6402C4.67534 24.8015 4.71959 25.6404 5.0293 26.0267C5.38264 26.464 6.43197 26.6667 8.33464 26.6667C10.2373 26.6667 11.2866 26.4627 11.64 26.0253C12.0013 25.576 12.0013 24.5093 12.0013 23.032C12.0013 19.6984 12.0013 19.3496 8.60952 19.3339ZM8.33464 2.66667C13.76 2.66667 14.0013 4.50667 14.0013 8.33334C14.0013 10.2507 14.0013 11.6147 13.196 12.6133C12.2693 13.764 10.5826 14 8.33464 14C6.08664 14 4.39997 13.764 3.4733 12.6133C2.66797 11.6147 2.66797 10.252 2.66797 8.36667V8.33334C2.66797 4.50667 2.9093 2.66667 8.33464 2.66667ZM23.0013 2.66667C28.4266 2.66667 28.668 4.50667 28.668 8.33334C28.668 10.2507 28.668 11.6147 27.8626 12.6133C26.936 13.764 25.2493 14 23.0013 14C20.7533 14 19.0666 13.764 18.14 12.6133C17.3346 11.6147 17.3346 10.252 17.3346 8.36667V8.33334C17.3346 4.50667 17.576 2.66667 23.0013 2.66667ZM8.60952 4.66727L8.33464 4.66667C4.856 4.66667 4.67761 4.91629 4.66846 7.83607L4.66902 8.97358C4.67534 10.1349 4.71959 10.9737 5.0293 11.36C5.38264 11.7973 6.43197 12 8.33464 12C10.2373 12 11.2866 11.796 11.64 11.3587C12.0013 10.9093 12.0013 9.84267 12.0013 8.36534C12.0013 5.03173 12.0013 4.68296 8.60952 4.66727ZM23.2762 4.66727L23.0013 4.66667C19.5227 4.66667 19.3443 4.91629 19.3351 7.83607L19.3357 8.97358C19.342 10.1349 19.3863 10.9737 19.696 11.36C20.0493 11.7973 21.0986 12 23.0013 12C24.904 12 25.9533 11.796 26.3066 11.3587C26.668 10.9093 26.668 9.84267 26.668 8.36534C26.668 5.03173 26.668 4.68296 23.2762 4.66727Z" fill="#57C568"/>
<path d="M23 19V23M23 27V23M23 23H27M23 23H19" stroke="#57C568" stroke-width="2" stroke-linecap="round"/>
</svg>
