<svg width="24" height="24" viewBox="0 0 24 24" fill="none" xmlns="http://www.w3.org/2000/svg">
<path d="M22.25 12C22.25 17.6609 17.6609 22.25 12 22.25C10.3931 22.25 8.87457 21.8808 7.52271 21.2232C6.90207 20.9213 6.16282 20.8015 5.4391 21.0006L3.19499 21.6181C2.65102 21.7678 2.14276 21.2859 2.26334 20.7347L2.85494 18.0306C2.99592 17.3862 2.88957 16.7413 2.64114 16.1869C2.06873 14.9095 1.75 13.493 1.75 12C1.75 6.33908 6.33908 1.75 12 1.75C17.6609 1.75 22.25 6.33908 22.25 12Z" stroke="#242424" stroke-width="1.5"/>
<circle cx="8" cy="12" r="1" fill="#242424"/>
<circle cx="12" cy="12" r="1" fill="#242424"/>
<circle cx="16" cy="12" r="1" fill="#242424"/>
</svg>
