<svg width="366" height="200" viewBox="0 0 366 200" fill="none" xmlns="http://www.w3.org/2000/svg">
<g clip-path="url(#clip0_224_7126)">
<rect width="366" height="200" rx="20" fill="#F6F6F6"/>
<path d="M250 126H284V139C284 145.707 286.176 152.234 290.2 157.6L301 172H233L243.8 157.6C247.824 152.234 250 145.707 250 139V126Z" fill="white" stroke="#242424" stroke-width="2"/>
<path opacity="0.6" d="M253 127H281V134C281 134 277.938 132.444 267 132.444C256.062 132.444 253 134 253 134V127Z" fill="#B4B4B4"/>
<path d="M242.838 88.178C243.899 90.0886 244.525 91.5184 244.813 92.6347C245.095 93.7323 245.033 94.4586 244.795 95.0244C244.549 95.6113 244.056 96.1685 243.198 96.8143C242.403 97.4125 241.39 98.0194 240.128 98.7753C240.016 98.842 239.903 98.9099 239.788 98.9791C237.358 100.436 234.68 100.288 232.021 98.8218C229.33 97.3374 226.706 94.5129 224.614 90.7486C224.307 90.1971 223.815 88.9172 223.333 87.1985C222.857 85.5034 222.413 83.4559 222.177 81.405C221.939 79.3435 221.919 77.3357 222.254 75.6943C222.592 74.0428 223.252 72.9255 224.233 72.3693C225.181 71.832 226.465 71.8647 228.119 72.5778C229.762 73.2863 231.593 74.5976 233.446 76.2911C237.146 79.6731 240.734 84.3935 242.838 88.178Z" fill="white" stroke="#242424" stroke-width="2"/>
<path d="M291.162 88.178C290.101 90.0886 289.475 91.5184 289.187 92.6347C288.905 93.7323 288.967 94.4586 289.205 95.0244C289.451 95.6113 289.944 96.1685 290.802 96.8143C291.597 97.4125 292.61 98.0193 293.872 98.7753C293.984 98.842 294.097 98.9099 294.212 98.9791C296.642 100.436 299.32 100.288 301.979 98.8218C304.67 97.3374 307.294 94.5129 309.386 90.7486C309.693 90.1971 310.185 88.9172 310.667 87.1985C311.143 85.5034 311.587 83.4559 311.823 81.405C312.061 79.3435 312.081 77.3357 311.746 75.6943C311.408 74.0428 310.748 72.9255 309.767 72.3693C308.819 71.832 307.535 71.8647 305.881 72.5778C304.238 73.2863 302.407 74.5976 300.554 76.2911C296.854 79.6731 293.266 84.3935 291.162 88.178Z" fill="white" stroke="#242424" stroke-width="2"/>
<path d="M226 76C226.819 76.2513 228.332 77.1323 229.909 78.9474M233 84C232.07 81.8268 230.975 80.1738 229.909 78.9474M226 82.7368C226.273 81.8947 227.437 79.9579 229.909 78.9474" stroke="#242424" stroke-width="2" stroke-linecap="round"/>
<path d="M308 76C307.181 76.2513 305.668 77.1323 304.091 78.9474M301 84C301.93 81.8268 303.025 80.1738 304.091 78.9474M308 82.7368C307.727 81.8947 306.563 79.9579 304.091 78.9474" stroke="#242424" stroke-width="2" stroke-linecap="round"/>
<path d="M303.05 162.376L303.051 162.376L303.054 162.377C307.464 164.56 312.253 166.931 316.944 170.198C326.368 176.76 335.432 186.957 340.038 206.517C340.456 208.291 339.08 210 337.19 210H196.808C194.919 210 193.544 208.292 193.962 206.517C198.568 186.957 207.632 176.76 217.056 170.198C221.747 166.931 226.536 164.56 230.946 162.377L230.949 162.376L230.95 162.376C231.316 162.194 231.681 162.014 232.042 161.835C235.836 159.951 241.079 156.335 244.573 153.498C245.692 152.589 247.277 152.443 248.529 153.136C260.934 159.997 273.066 159.997 285.471 153.136C286.724 152.443 288.308 152.589 289.427 153.498C292.921 156.335 298.164 159.951 301.958 161.835C302.315 162.012 302.675 162.19 303.037 162.369L303.05 162.376Z" fill="#57C568" stroke="#242424" stroke-width="2"/>
<path d="M288 210L303.5 162.5L313.5 168.5L323 174.5L332.5 186.5L340 204.5V208.5L337.5 210H288Z" fill="#242424"/>
<path d="M246 210L230.5 162.5L220.5 168.5L211 174.5L201.5 186.5L194 204.5V208.5L196.5 210H246Z" fill="#242424"/>
<path d="M304 81C304 94.6085 299.807 106.891 293.074 115.75C286.342 124.608 277.114 130 267 130C256.886 130 247.658 124.608 240.926 115.75C234.193 106.891 230 94.6085 230 81C230 67.236 231.756 54.9736 237.229 46.1727C242.642 37.4679 251.789 32 267 32C282.211 32 291.358 37.4679 296.771 46.1727C302.244 54.9736 304 67.236 304 81Z" fill="white" stroke="#242424" stroke-width="2"/>
<path d="M268 69C267.37 76.5304 265.786 91.9064 264.264 96.3148C264.125 96.7163 264.193 97.1783 264.527 97.4404C265.87 98.4934 267.35 98.5 270 98.5" stroke="#242424" stroke-width="2" stroke-linecap="round" stroke-linejoin="round"/>
<ellipse cx="249.5" cy="83" rx="3.5" ry="4" fill="#242424"/>
<ellipse cx="284.5" cy="83" rx="3.5" ry="4" fill="#242424"/>
<path d="M253.583 69.0345C246.834 69.0748 242.822 69.4028 240.307 69.7777C239.851 69.8456 239.579 69.3566 239.937 69.0663C241.778 67.5758 244.833 66.4444 246.5 66.1212C248.685 65.6974 251.252 66.3849 253.868 68.1836C254.256 68.4508 254.055 69.0317 253.583 69.0345Z" fill="#242424"/>
<path d="M280.417 69.0345C287.166 69.0748 291.178 69.4028 293.693 69.7777C294.149 69.8456 294.421 69.3566 294.063 69.0663C292.222 67.5758 289.167 66.4444 287.5 66.1212C285.315 65.6974 282.748 66.3849 280.132 68.1836C279.744 68.4508 279.945 69.0317 280.417 69.0345Z" fill="#242424"/>
<path fill-rule="evenodd" clip-rule="evenodd" d="M229.908 78.6443C228.87 70.8543 228.478 55.415 234.678 40.8259C241.245 25.3733 258.963 21.8403 267 22.0054C275.038 21.8403 292.755 25.3733 299.322 40.8259C305.522 55.415 305.131 70.8543 304.093 78.6443C304.031 79.1053 303.971 79.5571 303.914 80C303.401 48.7976 291.114 45.2834 291.114 45.2834C289.136 45.2834 287.427 46.3037 285.275 47.588C281.619 49.7694 276.688 52.7125 267 52.7125C257.313 52.7125 252.381 49.7694 248.726 47.588C246.574 46.3037 244.865 45.2834 242.887 45.2834C242.887 45.2834 230.6 48.7976 230.087 80C230.03 79.5571 229.969 79.1053 229.908 78.6443Z" fill="#242424"/>
<path fill-rule="evenodd" clip-rule="evenodd" d="M267 103.5C266.333 103.167 264 102.5 260 102.5C257.182 102.5 255.318 102.976 253.69 103.392C252.428 103.714 251.309 104 250 104C247 104 239 102 230 91C231.77 97.8278 232.517 102.609 233.147 106.638C233.762 110.575 234.264 113.793 235.5 117.5C237.914 124.741 246.5 134 267 134C287.5 134 296.086 124.741 298.5 117.5C299.736 113.793 300.238 110.575 300.853 106.638C301.483 102.609 302.23 97.8278 304 91C295 102 287 104 284 104C282.691 104 281.572 103.714 280.311 103.392C278.682 102.976 276.818 102.5 274 102.5C270 102.5 267.667 103.167 267 103.5Z" fill="#242424"/>
<path d="M258 108.375C258 108.375 261.522 111 267 111C272.478 111 276 108 276 108" stroke="white" stroke-width="2" stroke-linecap="round" stroke-linejoin="round"/>
<ellipse cx="287.5" cy="94.5" rx="7.5" ry="3.5" fill="#57C568"/>
<ellipse cx="246.5" cy="94.5" rx="7.5" ry="3.5" fill="#57C568"/>
<path d="M350.63 70.6736C348.351 70.532 346.831 68.3169 347.451 66.1194C347.522 65.8702 347.6 65.6254 347.686 65.3909C348.354 63.5737 349.396 62.5434 350.755 63.1429C352.524 63.923 351.096 66.4141 351.096 66.4141C351.096 66.4141 353.978 65.067 355.129 67.0737C355.992 68.5787 354.729 70.253 352.121 70.6339C351.656 70.7001 351.145 70.7056 350.63 70.6736Z" fill="#57C568"/>
<path d="M342.741 70.1409C344.514 70.1004 345.759 71.9135 345.147 73.5776C344.714 74.756 344.038 75.4242 343.156 75.0354C342.009 74.5295 342.936 72.9141 342.936 72.9141C342.936 72.9141 341.067 73.7877 340.321 72.4864C339.761 71.5104 340.58 70.4246 342.271 70.1776C342.421 70.1562 342.579 70.1446 342.741 70.1409Z" fill="#57C568"/>
<path d="M346.601 66.1589C346.653 68.4162 344.344 70.0012 342.225 69.2224C340.724 68.6709 339.873 67.8098 340.368 66.6874C341.013 65.2267 343.07 66.4061 343.07 66.4061C343.07 66.4061 341.957 64.0261 343.614 63.0759C344.857 62.3633 346.24 63.406 346.555 65.5595C346.582 65.7514 346.597 65.9526 346.601 66.1589Z" fill="#57C568"/>
<path d="M346.039 74.5428C345.988 72.2855 348.297 70.7004 350.416 71.4792C351.917 72.0307 352.767 72.8919 352.272 74.0142C351.628 75.4749 349.571 74.2955 349.571 74.2955C349.571 74.2955 350.683 76.6756 349.026 77.6258C347.783 78.3384 346.401 77.2957 346.086 75.1421C346.059 74.9502 346.044 74.749 346.039 74.5428Z" fill="#57C568"/>
<path d="M48.63 42.674C46.3509 42.5324 44.8307 40.3173 45.4514 38.1198C45.5218 37.8706 45.5997 37.6257 45.6859 37.3912C46.3537 35.5741 47.3964 34.5438 48.7555 35.1432C50.5242 35.9234 49.0961 38.4144 49.0961 38.4144C49.0961 38.4144 51.9781 37.0673 53.1286 39.074C53.9915 40.579 52.7289 42.2533 50.1213 42.6343C49.6557 42.7004 49.1449 42.706 48.63 42.674Z" fill="#57C568"/>
<path d="M40.7414 42.1412C42.514 42.1008 43.7586 43.9138 43.1471 45.578C42.714 46.7564 42.0378 47.4245 41.1565 47.0358C40.0095 46.5299 40.9356 44.9145 40.9356 44.9145C40.9356 44.9145 39.0667 45.7881 38.3206 44.4867C37.761 43.5108 38.5798 42.425 40.2708 42.178C40.4215 42.1566 40.5795 42.1449 40.7414 42.1412Z" fill="#57C568"/>
<path d="M44.6015 38.1593C44.653 40.4165 42.3441 42.0016 40.2248 41.2228C38.7241 40.6713 37.8732 39.8102 38.3683 38.6878C39.0126 37.2271 41.0698 38.4065 41.0698 38.4065C41.0698 38.4065 39.9573 36.0264 41.6145 35.0763C42.8574 34.3637 44.2401 35.4064 44.5547 37.5599C44.582 37.7518 44.5968 37.953 44.6015 38.1593Z" fill="#57C568"/>
<path d="M44.0392 46.5431C43.9877 44.2859 46.2966 42.7008 48.4159 43.4796C49.9166 44.0311 50.7674 44.8922 50.2724 46.0146C49.6281 47.4753 47.5708 46.2959 47.5708 46.2959C47.5708 46.2959 48.6834 48.676 47.0261 49.6261C45.7832 50.3387 44.4005 49.296 44.0859 47.1425C44.0587 46.9506 44.0439 46.7494 44.0392 46.5431Z" fill="#57C568"/>
<path d="M139.878 78.084C137.729 78.8575 135.401 77.8826 134.426 75.8177C133.272 73.3734 131.852 69.9846 131.152 66.8402C129.934 61.3686 130.861 57.2266 135.109 56.5592C140.639 55.6906 141.06 63.9939 141.06 63.9939C141.06 63.9939 145.971 56.2009 151.915 59.2877C156.373 61.6027 155.919 67.6575 150.163 72.6676C147.34 75.1063 142.977 76.9681 139.878 78.084Z" fill="#57C568"/>
<path d="M130.847 83.9528C132.966 83.1002 135.313 84.0849 136.22 86.1805C136.823 87.5734 137.436 89.2117 137.781 90.7589C138.571 94.3071 137.969 96.9931 135.214 97.4259C131.628 97.9892 131.355 92.6046 131.355 92.6046C131.355 92.6046 128.171 97.6583 124.316 95.6566C121.425 94.1553 121.72 90.2288 125.452 86.9799C126.921 85.7112 129.032 84.6833 130.847 83.9528Z" fill="#57C568"/>
<path d="M132.898 76.8856C133.701 79.0231 132.723 81.3563 130.646 82.3058C128.695 83.1975 126.188 84.2034 123.845 84.7251C119.326 85.7311 115.906 84.9655 115.354 81.4567C114.637 76.8901 121.494 76.5424 121.494 76.5424C121.494 76.5424 115.059 72.4866 117.608 67.5779C119.52 63.8964 124.52 64.2716 128.657 69.0247C130.51 71.1699 131.96 74.3908 132.898 76.8856Z" fill="#57C568"/>
<path d="M138.278 85.236C137.475 83.0985 138.453 80.7653 140.53 79.8158C142.48 78.9241 144.988 77.9182 147.331 77.3965C151.85 76.3905 155.27 77.1561 155.821 80.6649C156.539 85.2315 149.681 85.5792 149.681 85.5792C149.681 85.5792 156.117 89.6349 153.568 94.5437C151.656 98.2252 146.656 97.85 142.518 93.0969C140.665 90.9517 139.216 87.7308 138.278 85.236Z" fill="#57C568"/>
<path d="M184.299 35.7617C183.818 37.9939 181.624 39.333 179.408 38.7828C178.434 38.5408 177.403 38.2286 176.487 37.8347C173.824 36.6898 172.368 35.048 173.374 33.065C174.683 30.4841 178.291 32.8199 178.291 32.8199C178.291 32.8199 176.51 28.4033 179.603 26.8455C181.922 25.6772 184.323 27.6996 184.682 31.6282C184.794 32.9176 184.589 34.4189 184.299 35.7617Z" fill="#57C568"/>
<path d="M183.233 44.9834C183.472 42.7124 185.781 41.305 187.934 42.0651C188.135 42.1359 188.332 42.2119 188.521 42.2932C190.247 43.0356 191.191 44.1003 190.539 45.3863C189.69 47.06 187.35 45.5452 187.35 45.5452C187.35 45.5452 188.505 48.4093 186.5 49.4195C184.996 50.1772 183.439 48.8656 183.206 46.318C183.17 45.8977 183.185 45.4426 183.233 44.9834Z" fill="#57C568"/>
<path d="M179.398 39.7264C181.646 40.1271 183.004 42.3523 182.383 44.5498C182.214 45.1501 182.012 45.755 181.773 46.3091C180.828 48.5077 179.472 49.71 177.834 48.8794C175.703 47.7985 177.632 44.8187 177.632 44.8187C177.632 44.8187 173.984 46.2894 172.698 43.7356C171.733 41.8202 173.403 39.8376 176.648 39.5412C177.504 39.4663 178.474 39.5617 179.398 39.7264Z" fill="#57C568"/>
<path d="M188.184 40.8279C185.936 40.4272 184.578 38.202 185.199 36.0045C185.368 35.4042 185.57 34.7993 185.809 34.2452C186.754 32.0466 188.11 30.8443 189.748 31.6749C191.879 32.7559 189.95 35.7357 189.95 35.7357C189.95 35.7357 193.598 34.2649 194.884 36.8187C195.849 38.7341 194.179 40.7167 190.934 41.0131C190.078 41.088 189.108 40.9926 188.184 40.8279Z" fill="#57C568"/>
</g>
<defs>
<clipPath id="clip0_224_7126">
<rect width="366" height="200" rx="20" fill="white"/>
</clipPath>
</defs>
</svg>
