<svg width="446" height="200" viewBox="0 0 446 200" fill="none" xmlns="http://www.w3.org/2000/svg">
<g clip-path="url(#clip0_35_396)">
<rect width="446" height="200" rx="20" fill="#F6F6F6"/>
<path d="M330 126H364V139C364 145.707 366.176 152.234 370.2 157.6L381 172H313L323.8 157.6C327.824 152.234 330 145.707 330 139V126Z" fill="white" stroke="#242424" stroke-width="2"/>
<path opacity="0.6" d="M333 127H361V134C361 134 357.938 132.444 347 132.444C336.062 132.444 333 134 333 134V127Z" fill="#B4B4B4"/>
<path d="M322.838 88.178C323.899 90.0886 324.525 91.5184 324.813 92.6347C325.095 93.7323 325.033 94.4586 324.795 95.0244C324.549 95.6113 324.056 96.1685 323.198 96.8143C322.403 97.4125 321.39 98.0194 320.128 98.7753C320.016 98.842 319.903 98.9099 319.788 98.9791C317.358 100.436 314.68 100.288 312.021 98.8218C309.33 97.3374 306.706 94.5129 304.614 90.7486C304.307 90.1971 303.815 88.9172 303.333 87.1985C302.857 85.5034 302.413 83.4559 302.177 81.405C301.939 79.3435 301.919 77.3357 302.254 75.6943C302.592 74.0428 303.252 72.9255 304.233 72.3693C305.181 71.832 306.465 71.8647 308.119 72.5778C309.762 73.2863 311.593 74.5976 313.446 76.2911C317.146 79.6731 320.734 84.3935 322.838 88.178Z" fill="white" stroke="#242424" stroke-width="2"/>
<path d="M371.162 88.178C370.101 90.0886 369.475 91.5184 369.187 92.6347C368.905 93.7323 368.967 94.4586 369.205 95.0244C369.451 95.6113 369.944 96.1685 370.802 96.8143C371.597 97.4125 372.61 98.0193 373.872 98.7753C373.984 98.842 374.097 98.9099 374.212 98.9791C376.642 100.436 379.32 100.288 381.979 98.8218C384.67 97.3374 387.294 94.5129 389.386 90.7486C389.693 90.1971 390.185 88.9172 390.667 87.1985C391.143 85.5034 391.587 83.4559 391.823 81.405C392.061 79.3435 392.081 77.3357 391.746 75.6943C391.408 74.0428 390.748 72.9255 389.767 72.3693C388.819 71.832 387.535 71.8647 385.881 72.5778C384.238 73.2863 382.407 74.5976 380.554 76.2911C376.854 79.6731 373.266 84.3935 371.162 88.178Z" fill="white" stroke="#242424" stroke-width="2"/>
<path d="M306 76C306.819 76.2513 308.332 77.1323 309.909 78.9474M313 84C312.07 81.8268 310.975 80.1738 309.909 78.9474M306 82.7368C306.273 81.8947 307.437 79.9579 309.909 78.9474" stroke="#242424" stroke-width="2" stroke-linecap="round"/>
<path d="M388 76C387.181 76.2513 385.668 77.1323 384.091 78.9474M381 84C381.93 81.8268 383.025 80.1738 384.091 78.9474M388 82.7368C387.727 81.8947 386.563 79.9579 384.091 78.9474" stroke="#242424" stroke-width="2" stroke-linecap="round"/>
<path d="M383.05 162.376L383.051 162.376L383.054 162.377C387.464 164.56 392.253 166.931 396.944 170.198C406.368 176.76 415.432 186.957 420.038 206.517C420.456 208.291 419.08 210 417.19 210H276.808C274.919 210 273.544 208.292 273.962 206.517C278.568 186.957 287.632 176.76 297.056 170.198C301.747 166.931 306.536 164.56 310.946 162.377L310.949 162.376L310.95 162.376C311.316 162.194 311.681 162.014 312.042 161.835C315.836 159.951 321.079 156.335 324.573 153.498C325.692 152.589 327.277 152.443 328.529 153.136C340.934 159.997 353.066 159.997 365.471 153.136C366.724 152.443 368.308 152.589 369.427 153.498C372.921 156.335 378.164 159.951 381.958 161.835C382.315 162.012 382.675 162.19 383.037 162.369L383.05 162.376Z" fill="#57C568" stroke="#242424" stroke-width="2"/>
<path d="M368 210L383.5 162.5L393.5 168.5L403 174.5L412.5 186.5L420 204.5V208.5L417.5 210H368Z" fill="#242424"/>
<path d="M326 210L310.5 162.5L300.5 168.5L291 174.5L281.5 186.5L274 204.5V208.5L276.5 210H326Z" fill="#242424"/>
<path d="M384 81C384 94.6085 379.807 106.891 373.074 115.75C366.342 124.608 357.114 130 347 130C336.886 130 327.658 124.608 320.926 115.75C314.193 106.891 310 94.6085 310 81C310 67.236 311.756 54.9736 317.229 46.1727C322.642 37.4679 331.789 32 347 32C362.211 32 371.358 37.4679 376.771 46.1727C382.244 54.9736 384 67.236 384 81Z" fill="white" stroke="#242424" stroke-width="2"/>
<path d="M348 69C347.37 76.5304 345.786 91.9064 344.264 96.3148C344.125 96.7163 344.193 97.1783 344.527 97.4404C345.87 98.4934 347.35 98.5 350 98.5" stroke="#242424" stroke-width="2" stroke-linecap="round" stroke-linejoin="round"/>
<ellipse cx="329.5" cy="83" rx="3.5" ry="4" fill="#242424"/>
<ellipse cx="364.5" cy="83" rx="3.5" ry="4" fill="#242424"/>
<path d="M333.583 69.0345C326.834 69.0748 322.822 69.4028 320.307 69.7777C319.851 69.8456 319.579 69.3566 319.937 69.0663C321.778 67.5758 324.833 66.4444 326.5 66.1212C328.685 65.6974 331.252 66.3849 333.868 68.1836C334.256 68.4508 334.055 69.0317 333.583 69.0345Z" fill="#242424"/>
<path d="M360.417 69.0345C367.166 69.0748 371.178 69.4028 373.693 69.7777C374.149 69.8456 374.421 69.3566 374.063 69.0663C372.222 67.5758 369.167 66.4444 367.5 66.1212C365.315 65.6974 362.748 66.3849 360.132 68.1836C359.744 68.4508 359.945 69.0317 360.417 69.0345Z" fill="#242424"/>
<path fill-rule="evenodd" clip-rule="evenodd" d="M309.908 78.6443C308.87 70.8543 308.478 55.415 314.678 40.8259C321.245 25.3733 338.963 21.8403 347 22.0054C355.038 21.8403 372.755 25.3733 379.322 40.8259C385.522 55.415 385.131 70.8543 384.093 78.6443C384.031 79.1053 383.971 79.5571 383.914 80C383.401 48.7976 371.114 45.2834 371.114 45.2834C369.136 45.2834 367.427 46.3037 365.275 47.588C361.619 49.7694 356.688 52.7125 347 52.7125C337.313 52.7125 332.381 49.7694 328.726 47.588C326.574 46.3037 324.865 45.2834 322.887 45.2834C322.887 45.2834 310.6 48.7976 310.087 80C310.03 79.5571 309.969 79.1053 309.908 78.6443Z" fill="#242424"/>
<path fill-rule="evenodd" clip-rule="evenodd" d="M347 103.5C346.333 103.167 344 102.5 340 102.5C337.182 102.5 335.318 102.976 333.69 103.392C332.428 103.714 331.309 104 330 104C327 104 319 102 310 91C311.77 97.8278 312.517 102.609 313.147 106.638C313.762 110.575 314.264 113.793 315.5 117.5C317.914 124.741 326.5 134 347 134C367.5 134 376.086 124.741 378.5 117.5C379.736 113.793 380.238 110.575 380.853 106.638C381.483 102.609 382.23 97.8278 384 91C375 102 367 104 364 104C362.691 104 361.572 103.714 360.311 103.392C358.682 102.976 356.818 102.5 354 102.5C350 102.5 347.667 103.167 347 103.5Z" fill="#242424"/>
<path d="M338 108.375C338 108.375 341.522 111 347 111C352.478 111 356 108 356 108" stroke="white" stroke-width="2" stroke-linecap="round" stroke-linejoin="round"/>
<ellipse cx="367.5" cy="94.5" rx="7.5" ry="3.5" fill="#57C568"/>
<ellipse cx="326.5" cy="94.5" rx="7.5" ry="3.5" fill="#57C568"/>
<path d="M430.63 70.6736C428.351 70.532 426.831 68.3169 427.451 66.1194C427.522 65.8702 427.6 65.6254 427.686 65.3909C428.354 63.5737 429.396 62.5434 430.755 63.1429C432.524 63.923 431.096 66.4141 431.096 66.4141C431.096 66.4141 433.978 65.067 435.129 67.0737C435.992 68.5787 434.729 70.253 432.121 70.6339C431.656 70.7001 431.145 70.7056 430.63 70.6736Z" fill="#57C568"/>
<path d="M422.741 70.1409C424.514 70.1004 425.759 71.9135 425.147 73.5776C424.714 74.756 424.038 75.4242 423.156 75.0354C422.009 74.5295 422.936 72.9141 422.936 72.9141C422.936 72.9141 421.067 73.7877 420.321 72.4864C419.761 71.5104 420.58 70.4246 422.271 70.1776C422.421 70.1562 422.579 70.1446 422.741 70.1409Z" fill="#57C568"/>
<path d="M426.601 66.1589C426.653 68.4162 424.344 70.0012 422.225 69.2224C420.724 68.6709 419.873 67.8098 420.368 66.6874C421.013 65.2267 423.07 66.4061 423.07 66.4061C423.07 66.4061 421.957 64.0261 423.614 63.0759C424.857 62.3633 426.24 63.406 426.555 65.5595C426.582 65.7514 426.597 65.9526 426.601 66.1589Z" fill="#57C568"/>
<path d="M426.039 74.5428C425.988 72.2855 428.297 70.7004 430.416 71.4792C431.917 72.0307 432.767 72.8919 432.272 74.0142C431.628 75.4749 429.571 74.2955 429.571 74.2955C429.571 74.2955 430.683 76.6756 429.026 77.6258C427.783 78.3384 426.401 77.2957 426.086 75.1421C426.059 74.9502 426.044 74.749 426.039 74.5428Z" fill="#57C568"/>
<path d="M171.63 85.674C169.351 85.5324 167.831 83.3173 168.451 81.1198C168.522 80.8706 168.6 80.6257 168.686 80.3912C169.354 78.5741 170.396 77.5438 171.755 78.1432C173.524 78.9234 172.096 81.4144 172.096 81.4144C172.096 81.4144 174.978 80.0673 176.129 82.074C176.992 83.579 175.729 85.2533 173.121 85.6343C172.656 85.7004 172.145 85.706 171.63 85.674Z" fill="#57C568"/>
<path d="M163.741 85.1412C165.514 85.1008 166.759 86.9138 166.147 88.578C165.714 89.7564 165.038 90.4245 164.156 90.0358C163.009 89.5299 163.936 87.9145 163.936 87.9145C163.936 87.9145 162.067 88.7881 161.321 87.4867C160.761 86.5108 161.58 85.425 163.271 85.178C163.421 85.1566 163.579 85.1449 163.741 85.1412Z" fill="#57C568"/>
<path d="M167.601 81.1593C167.653 83.4165 165.344 85.0016 163.225 84.2228C161.724 83.6713 160.873 82.8102 161.368 81.6878C162.013 80.2271 164.07 81.4065 164.07 81.4065C164.07 81.4065 162.957 79.0264 164.614 78.0763C165.857 77.3637 167.24 78.4064 167.555 80.5599C167.582 80.7518 167.597 80.953 167.601 81.1593Z" fill="#57C568"/>
<path d="M167.039 89.5431C166.988 87.2859 169.297 85.7008 171.416 86.4796C172.917 87.0311 173.767 87.8922 173.272 89.0146C172.628 90.4753 170.571 89.2959 170.571 89.2959C170.571 89.2959 171.683 91.676 170.026 92.6261C168.783 93.3387 167.401 92.296 167.086 90.1425C167.059 89.9506 167.044 89.7494 167.039 89.5431Z" fill="#57C568"/>
<path d="M-113.224 108.434C-115.415 109.077 -117.695 108.099 -118.777 106.088C-125.064 94.4107 -145.567 54.6851 -153.458 19.2382C-162.301 -20.4789 -155.572 -50.5441 -124.732 -55.3886C-84.5933 -61.6938 -81.5369 -1.42225 -81.5369 -1.42225C-81.5369 -1.42225 -45.8892 -57.9894 -2.74414 -35.5835C29.6147 -18.7791 26.3167 25.171 -15.4601 61.5378C-45.2834 87.2962 -98.7586 104.188 -113.224 108.434Z" fill="#FAFAFA"/>
<path d="M-109.466 129.771C-110.115 127.582 -109.165 125.272 -107.151 124.194C-96.8331 118.669 -64.7193 102.256 -36.0052 95.8633C-3.20513 88.5608 21.624 94.118 25.6248 119.587C30.8319 152.735 -18.9429 155.259 -18.9429 155.259C-18.9429 155.259 27.7727 184.699 9.26891 220.33C-4.6089 247.053 -40.9047 244.329 -70.938 209.828C-91.8254 185.645 -105.653 142.629 -109.466 129.771Z" fill="#FAFAFA"/>
<path d="M237.878 143.084C235.729 143.858 233.401 142.883 232.426 140.818C231.272 138.373 229.852 134.985 229.152 131.84C227.934 126.369 228.861 122.227 233.109 121.559C238.639 120.691 239.06 128.994 239.06 128.994C239.06 128.994 243.971 121.201 249.915 124.288C254.373 126.603 253.919 132.658 248.163 137.668C245.34 140.106 240.977 141.968 237.878 143.084Z" fill="#57C568"/>
<path d="M228.847 148.953C230.966 148.1 233.313 149.085 234.22 151.181C234.823 152.573 235.436 154.212 235.781 155.759C236.571 159.307 235.969 161.993 233.214 162.426C229.628 162.989 229.355 157.605 229.355 157.605C229.355 157.605 226.171 162.658 222.316 160.657C219.425 159.155 219.72 155.229 223.452 151.98C224.921 150.711 227.032 149.683 228.847 148.953Z" fill="#57C568"/>
<path d="M230.898 141.886C231.701 144.023 230.723 146.356 228.646 147.306C226.695 148.197 224.188 149.203 221.845 149.725C217.326 150.731 213.906 149.966 213.354 146.457C212.637 141.89 219.494 141.542 219.494 141.542C219.494 141.542 213.059 137.487 215.608 132.578C217.52 128.896 222.52 129.272 226.657 134.025C228.51 136.17 229.96 139.391 230.898 141.886Z" fill="#57C568"/>
<path d="M236.278 150.236C235.475 148.098 236.453 145.765 238.53 144.816C240.48 143.924 242.988 142.918 245.331 142.396C249.85 141.39 253.27 142.156 253.821 145.665C254.539 150.231 247.681 150.579 247.681 150.579C247.681 150.579 254.117 154.635 251.568 159.544C249.656 163.225 244.656 162.85 240.518 158.097C238.665 155.952 237.216 152.731 236.278 150.236Z" fill="#57C568"/>
<path d="M264.299 35.7617C263.818 37.9939 261.624 39.333 259.408 38.7828C258.434 38.5408 257.403 38.2286 256.487 37.8347C253.824 36.6898 252.368 35.048 253.374 33.065C254.683 30.4841 258.291 32.8199 258.291 32.8199C258.291 32.8199 256.51 28.4033 259.603 26.8455C261.922 25.6772 264.323 27.6996 264.682 31.6282C264.794 32.9176 264.589 34.4189 264.299 35.7617Z" fill="#57C568"/>
<path d="M263.233 44.9834C263.472 42.7124 265.781 41.305 267.934 42.0651C268.135 42.1359 268.332 42.2119 268.521 42.2932C270.247 43.0356 271.191 44.1003 270.539 45.3863C269.69 47.06 267.35 45.5452 267.35 45.5452C267.35 45.5452 268.505 48.4093 266.5 49.4195C264.996 50.1772 263.439 48.8656 263.206 46.318C263.17 45.8977 263.185 45.4426 263.233 44.9834Z" fill="#57C568"/>
<path d="M259.398 39.7264C261.646 40.1271 263.004 42.3523 262.383 44.5498C262.214 45.1501 262.012 45.755 261.773 46.3091C260.828 48.5077 259.472 49.71 257.834 48.8794C255.703 47.7985 257.632 44.8187 257.632 44.8187C257.632 44.8187 253.984 46.2894 252.698 43.7356C251.733 41.8202 253.403 39.8376 256.648 39.5412C257.504 39.4663 258.474 39.5617 259.398 39.7264Z" fill="#57C568"/>
<path d="M268.184 40.8279C265.936 40.4272 264.578 38.202 265.199 36.0045C265.368 35.4042 265.57 34.7993 265.809 34.2452C266.754 32.0466 268.11 30.8443 269.748 31.6749C271.879 32.7559 269.95 35.7357 269.95 35.7357C269.95 35.7357 273.598 34.2649 274.884 36.8187C275.849 38.7341 274.179 40.7167 270.934 41.0131C270.078 41.088 269.108 40.9926 268.184 40.8279Z" fill="#57C568"/>
</g>
<defs>
<clipPath id="clip0_35_396">
<rect width="446" height="200" rx="20" fill="white"/>
</clipPath>
</defs>
</svg>
