<svg width="147" height="64" viewBox="0 0 147 64" fill="none" xmlns="http://www.w3.org/2000/svg">
<path d="M81.7772 11.6897C81.7772 11.6897 79.0767 9.15771 77.6284 6.64885C76.2623 4.28229 76.0805 2.2162 77.9409 1.27443C80.3621 0.048733 81.7772 3.85207 81.7772 3.85207C81.7772 3.85207 82.895 -0.505599 86.0889 0.048733C88.4842 0.464482 89.1651 3.35096 87.2488 6.53837C85.6519 9.17144 81.7772 11.6897 81.7772 11.6897Z" fill="#F72A63"/>
<path d="M1.425 45.9416C0.983172 45.9416 0.625 45.5834 0.625 45.1416V17.5136C0.625 17.0718 0.983172 16.7136 1.425 16.7136H5.94202C6.38384 16.7136 6.74201 17.0718 6.74201 17.5136V45.1416C6.74201 45.5834 6.38384 45.9416 5.94201 45.9416H1.425Z" fill="white"/>
<path d="M16.3715 45.9416C15.9297 45.9416 15.5715 45.5834 15.5715 45.1416V17.5136C15.5715 17.0718 15.9297 16.7136 16.3715 16.7136H20.4645C20.7241 16.7136 20.9675 16.8395 21.1174 17.0514L33.5607 34.626C33.786 34.9443 34.2871 34.7849 34.2871 34.3949V17.5136C34.2871 17.0718 34.6453 16.7136 35.0871 16.7136H39.5434C39.9852 16.7136 40.3434 17.0718 40.3434 17.5136V45.1416C40.3434 45.5834 39.9852 45.9416 39.5434 45.9416H35.4917C35.2317 45.9416 34.9879 45.8153 34.8381 45.6028L22.3546 27.9117C22.1296 27.5928 21.6278 27.752 21.6278 28.1423V45.1416C21.6278 45.5834 21.2696 45.9416 20.8278 45.9416H16.3715Z" fill="white"/>
<path d="M59.827 46.4885C57.5045 46.4885 55.479 46.1509 53.7505 45.4757C52.0356 44.7871 50.6853 43.8081 49.6995 42.5388C48.7842 41.331 48.3132 39.9334 48.12 38.4643C48.0598 38.0068 48.4287 37.6168 48.8902 37.6168H53.1639C53.5505 37.6168 53.8736 37.8961 53.9869 38.2658C54.1594 38.8287 54.4295 39.3381 54.8646 39.7841C55.4182 40.3242 56.1271 40.7496 56.9913 41.0601C57.869 41.3707 58.8615 41.526 59.9688 41.526C61.1031 41.526 62.0821 41.3707 62.9058 41.0601C63.7295 40.7496 64.3642 40.3107 64.8098 39.7436C65.2554 39.1764 65.4782 38.5215 65.4782 37.7788V37.7586C65.4782 36.7863 65.0866 36.0167 64.3034 35.4495C63.5337 34.8824 62.2441 34.4165 60.4347 34.0519L57.3357 33.424C54.4324 32.8434 52.2584 31.8576 50.8136 30.4668C49.3687 29.0759 48.6463 27.28 48.6463 25.0789V25.0587C48.6598 23.2763 49.1391 21.7234 50.0844 20.4C51.0431 19.0632 52.3597 18.0235 54.0341 17.2808C55.722 16.5381 57.6395 16.1667 59.7865 16.1667C62.0551 16.1667 64.0063 16.5246 65.6402 17.2403C67.2741 17.9424 68.5502 18.9349 69.4684 20.2177C70.338 21.415 70.7769 22.7666 70.9536 24.1962C71.0099 24.652 70.6416 25.0384 70.1824 25.0384H65.9915C65.5754 25.0384 65.2378 24.7162 65.1336 24.3134C64.9931 23.7702 64.7418 23.2623 64.3642 22.8306C63.8915 22.2905 63.2636 21.8719 62.4804 21.5748C61.7108 21.2778 60.8128 21.1292 59.7865 21.1292C58.7603 21.1292 57.869 21.2845 57.1129 21.5951C56.3702 21.8922 55.7895 22.304 55.3709 22.8306C54.9658 23.3573 54.7633 23.9717 54.7633 24.6738V24.6941C54.7633 25.6258 55.1549 26.3753 55.9381 26.9424C56.7213 27.5095 57.9568 27.9687 59.6447 28.3197L62.7235 28.9477C64.776 29.3528 66.4572 29.9131 67.767 30.6288C69.0768 31.3445 70.0423 32.2492 70.6635 33.343C71.2846 34.4233 71.5952 35.7263 71.5952 37.2522V37.2725C71.5952 39.1494 71.1226 40.7833 70.1773 42.1742C69.2456 43.5515 67.902 44.6183 66.1466 45.3745C64.3912 46.1171 62.2846 46.4885 59.827 46.4885Z" fill="white"/>
<path d="M80.0904 45.9416C79.6486 45.9416 79.2904 45.5834 79.2904 45.1416V17.5136C79.2904 17.0718 79.6486 16.7136 80.0904 16.7136H84.6074C85.0493 16.7136 85.4074 17.0718 85.4074 17.5136V45.1416C85.4074 45.5834 85.0493 45.9416 84.6074 45.9416H80.0904Z" fill="white"/>
<path d="M95.0369 45.9416C94.5951 45.9416 94.2369 45.5834 94.2369 45.1416V17.5136C94.2369 17.0718 94.5951 16.7136 95.0369 16.7136H105.458C108.375 16.7136 110.866 17.2808 112.932 18.4151C115.012 19.5358 116.598 21.1697 117.692 23.3168C118.8 25.4638 119.353 28.0767 119.353 31.1554V31.196C119.353 34.3017 118.8 36.9551 117.692 39.1562C116.598 41.3572 115.019 43.0384 112.953 44.1997C110.887 45.361 108.388 45.9416 105.458 45.9416H95.0369ZM100.354 40.0981C100.354 40.5399 100.712 40.8981 101.154 40.8981H104.689C106.511 40.8981 108.044 40.5335 109.286 39.8043C110.542 39.0617 111.494 37.9746 112.142 36.5433C112.791 35.1119 113.115 33.343 113.115 31.2365V31.196C113.115 29.1705 112.784 27.4555 112.122 26.0512C111.46 24.6468 110.502 23.5801 109.246 22.8509C107.99 22.1217 106.471 21.7571 104.689 21.7571H101.154C100.712 21.7571 100.354 22.1153 100.354 22.5571V40.0981Z" fill="white"/>
<path d="M128.01 45.9416C127.569 45.9416 127.21 45.5834 127.21 45.1416V17.5136C127.21 17.0718 127.569 16.7136 128.01 16.7136H145.774C146.216 16.7136 146.574 17.0718 146.574 17.5136V20.9571C146.574 21.399 146.216 21.7571 145.774 21.7571H134.127C133.686 21.7571 133.327 22.1153 133.327 22.5571V27.9856C133.327 28.4274 133.686 28.7856 134.127 28.7856H145.025C145.467 28.7856 145.825 29.1438 145.825 29.5856V32.7455C145.825 33.1874 145.467 33.5455 145.025 33.5455H134.127C133.686 33.5455 133.327 33.9037 133.327 34.3455V40.0981C133.327 40.5399 133.686 40.8981 134.127 40.8981H145.774C146.216 40.8981 146.574 41.2563 146.574 41.6981V45.1416C146.574 45.5834 146.216 45.9416 145.774 45.9416H128.01Z" fill="white"/>
<path d="M3.29697 63.7186H1V52.7433H8.07347V54.6372H3.29697V63.7186Z" fill="white"/>
<path d="M9.36646 63.8175C9.17885 63.8175 9.01152 63.8048 8.86447 63.7795C8.7225 63.7592 8.61348 63.7389 8.53742 63.7186V61.7107C8.5932 61.7208 8.66672 61.7335 8.75799 61.7487C8.85433 61.7588 8.95068 61.7639 9.04702 61.7639C9.42224 61.7639 9.70873 61.6549 9.90648 61.4369C10.1093 61.2137 10.2538 60.912 10.34 60.5318C10.4262 60.1464 10.4795 59.7129 10.4997 59.2311L10.8268 52.7433H18.4555V63.7186H16.1585V54.6372H12.8804L12.6142 59.3833C12.5685 60.2808 12.4342 61.0616 12.2111 61.7259C11.988 62.3901 11.6482 62.9048 11.1919 63.2699C10.7355 63.6349 10.1271 63.8175 9.36646 63.8175Z" fill="white"/>
<path d="M20.4939 63.7186L24.3044 52.7433H26.2591V54.9338H25.5898L22.9049 63.7186H20.4939ZM22.5322 61.0566L23.0951 59.3376H28.1682L28.731 61.0566H22.5322ZM28.404 63.7186L25.7267 54.9338V52.7433H27.0045L30.8227 63.7186H28.404Z" fill="white"/>
<path d="M33.9867 63.7186V62.0073H37.1812C37.8454 62.0073 38.3499 61.8704 38.6947 61.5966C39.0446 61.3228 39.2195 60.9247 39.2195 60.4025V60.3872C39.2195 60.0475 39.1384 59.761 38.9762 59.5278C38.819 59.2945 38.5832 59.1196 38.2688 59.003C37.9595 58.8813 37.5792 58.8204 37.1279 58.8204H33.9867V57.3069H36.8617C37.4803 57.3069 37.9544 57.1826 38.284 56.9342C38.6136 56.6857 38.7784 56.3358 38.7784 55.8846V55.8693C38.7784 55.4231 38.6263 55.0758 38.322 54.8273C38.0229 54.5738 37.5995 54.447 37.0519 54.447H33.9867V52.7433H37.6375C38.3525 52.7433 38.9609 52.8549 39.4629 53.078C39.97 53.296 40.3579 53.6104 40.6266 54.0211C40.9004 54.4268 41.0373 54.911 41.0373 55.4738V55.4891C41.0373 55.8744 40.9486 56.2344 40.7711 56.5691C40.5987 56.9037 40.363 57.1826 40.0638 57.4057C39.7646 57.6288 39.4274 57.7683 39.0522 57.8241V57.961C39.539 57.9965 39.97 58.1334 40.3452 58.3717C40.7255 58.61 41.0221 58.9193 41.2351 59.2996C41.4531 59.6799 41.5621 60.1033 41.5621 60.5698V60.585C41.5621 61.2239 41.4075 61.7791 41.0982 62.2507C40.794 62.7172 40.3579 63.0797 39.79 63.3383C39.2271 63.5919 38.5528 63.7186 37.7668 63.7186H33.9867ZM32.8382 63.7186V52.7433H35.1352V63.7186H32.8382Z" fill="white"/>
<path d="M43.7907 63.7186V52.7433H46.0877V57.2004H51.0315V52.7433H53.3284V63.7186H51.0315V59.0942H46.0877V63.7186H43.7907Z" fill="white"/>
<path d="M60.9419 64C59.8568 64 58.9188 63.7668 58.1278 63.3003C57.3367 62.8287 56.7257 62.1619 56.2947 61.2999C55.8688 60.4379 55.6558 59.4162 55.6558 58.2348V58.2196C55.6558 57.033 55.8713 56.0113 56.3023 55.1544C56.7384 54.2924 57.352 53.6281 58.143 53.1617C58.934 52.6952 59.867 52.4619 60.9419 52.4619C62.022 52.4619 62.955 52.6952 63.7409 53.1617C64.5319 53.6281 65.1429 54.2924 65.5739 55.1544C66.0049 56.0164 66.2204 57.0381 66.2204 58.2196V58.2348C66.2204 59.4162 66.0049 60.4379 65.5739 61.2999C65.148 62.1619 64.5395 62.8287 63.7485 63.3003C62.9575 63.7668 62.022 64 60.9419 64ZM60.9419 62.0529C61.5352 62.0529 62.0524 61.8957 62.4935 61.5814C62.9347 61.267 63.2744 60.8233 63.5127 60.2503C63.7561 59.6774 63.8778 59.0055 63.8778 58.2348V58.2196C63.8778 57.4438 63.7561 56.7719 63.5127 56.204C63.2744 55.631 62.9347 55.1899 62.4935 54.8806C62.0524 54.5662 61.5352 54.409 60.9419 54.409C60.3487 54.409 59.8315 54.5662 59.3903 54.8806C58.9492 55.1899 58.6069 55.631 58.3635 56.204C58.1202 56.7719 57.9984 57.4438 57.9984 58.2196V58.2348C57.9984 59.0055 58.1176 59.6774 58.3559 60.2503C58.5993 60.8233 58.9391 61.267 59.3751 61.5814C59.8163 61.8957 60.3385 62.0529 60.9419 62.0529Z" fill="white"/>
<path d="M68.5554 63.7186V52.7433H75.8267V54.6372H70.8524V57.284H75.5452V59.0486H70.8524V61.8248H75.8267V63.7186H68.5554Z" fill="white"/>
<path d="M83.5618 63.7186V62.0073H86.7563C87.4205 62.0073 87.9251 61.8704 88.2699 61.5966C88.6197 61.3228 88.7947 60.9247 88.7947 60.4025V60.3872C88.7947 60.0475 88.7135 59.761 88.5513 59.5278C88.3941 59.2945 88.1583 59.1196 87.8439 59.003C87.5346 58.8813 87.1543 58.8204 86.703 58.8204H83.5618V57.3069H86.4369C87.0555 57.3069 87.5295 57.1826 87.8591 56.9342C88.1887 56.6857 88.3535 56.3358 88.3535 55.8846V55.8693C88.3535 55.4231 88.2014 55.0758 87.8972 54.8273C87.598 54.5738 87.1746 54.447 86.627 54.447H83.5618V52.7433H87.2126C87.9276 52.7433 88.5361 52.8549 89.0381 53.078C89.5451 53.296 89.933 53.6104 90.2018 54.0211C90.4756 54.4268 90.6125 54.911 90.6125 55.4738V55.4891C90.6125 55.8744 90.5237 56.2344 90.3463 56.5691C90.1739 56.9037 89.9381 57.1826 89.6389 57.4057C89.3398 57.6288 89.0026 57.7683 88.6273 57.8241V57.961C89.1141 57.9965 89.5451 58.1334 89.9203 58.3717C90.3006 58.61 90.5973 58.9193 90.8102 59.2996C91.0283 59.6799 91.1373 60.1033 91.1373 60.5698V60.585C91.1373 61.2239 90.9826 61.7791 90.6733 62.2507C90.3691 62.7172 89.933 63.0797 89.3651 63.3383C88.8023 63.5919 88.1279 63.7186 87.3419 63.7186H83.5618ZM82.4133 63.7186V52.7433H84.7103V63.7186H82.4133Z" fill="white"/>
<path d="M93.3658 63.7186V52.7433H95.6628V57.2004H100.607V52.7433H102.904V63.7186H100.607V59.0942H95.6628V63.7186H93.3658Z" fill="white"/>
<path d="M107.269 63.8175C107.021 63.8175 106.805 63.7997 106.623 63.7642C106.445 63.7338 106.347 63.7135 106.326 63.7034V61.84C106.387 61.8552 106.473 61.8704 106.585 61.8856C106.701 61.9008 106.838 61.9084 106.996 61.9084C107.219 61.9084 107.421 61.8831 107.604 61.8324C107.792 61.7817 107.961 61.698 108.114 61.5814C108.271 61.4597 108.413 61.2999 108.54 61.1022L104.896 52.7433H107.338L109.696 58.8432H109.833L112.107 52.7433H114.525L111.164 60.5774C110.869 61.2568 110.553 61.84 110.213 62.3267C109.878 62.8084 109.478 63.1786 109.011 63.4372C108.545 63.6907 107.964 63.8175 107.269 63.8175Z" fill="white"/>
<path d="M118.952 63.7186V54.6372H115.659V52.7433H124.542V54.6372H121.249V63.7186H118.952Z" fill="white"/>
<path d="M127.874 60.2579V58.463H130.688C131.347 58.463 131.859 58.2956 132.224 57.961C132.594 57.6212 132.779 57.1395 132.779 56.5158V56.5006C132.779 55.877 132.594 55.3978 132.224 55.0631C131.859 54.7285 131.347 54.5611 130.688 54.5611H127.874V52.7433H131.251C132.021 52.7433 132.696 52.9005 133.274 53.2149C133.852 53.5242 134.301 53.9603 134.62 54.5231C134.945 55.0859 135.107 55.7426 135.107 56.493V56.5082C135.107 57.2638 134.945 57.9229 134.62 58.4858C134.301 59.0486 133.852 59.4847 133.274 59.794C132.696 60.1033 132.021 60.2579 131.251 60.2579H127.874ZM126.725 63.7186V52.7433H129.022V63.7186H126.725Z" fill="white"/>
<path d="M137.373 63.7186V52.7433H139.663V60.083H140.811L139.244 60.9273L144.751 52.7433H146.949V63.7186H144.66V56.3865H143.519L145.086 55.5423L139.579 63.7186H137.373Z" fill="white"/>
</svg>
