<svg width="366" height="200" viewBox="0 0 366 200" fill="none" xmlns="http://www.w3.org/2000/svg">
<g clip-path="url(#clip0_224_7196)">
<rect width="366" height="200" rx="20" fill="#F6F6F6"/>
<path d="M51.1618 38.9151C50.3281 41.041 48.0608 42.1498 45.8651 41.5227C43.2661 40.7804 39.781 39.616 36.9543 38.0709C32.0357 35.3821 29.5307 31.9557 31.828 28.3199C34.818 23.5879 41.3416 28.742 41.3416 28.742C41.3416 28.742 38.7151 19.9131 44.9534 17.4756C49.6321 15.6475 53.8875 19.9786 53.8642 27.6091C53.8383 31.3399 52.3646 35.8483 51.1618 38.9151Z" fill="#57C568"/>
<path d="M49.6276 49.576C50.3821 47.4208 52.6695 46.3037 54.8435 47.0022C56.2884 47.4664 57.925 48.0845 59.3158 48.8448C62.5055 50.5884 64.1299 52.8104 62.6401 55.1682C60.7012 58.2368 56.4708 54.8944 56.4708 54.8944C56.4708 54.8944 58.174 60.6199 54.1286 62.2005C51.0945 63.386 48.3349 60.5774 48.35 55.6291C48.3635 53.6883 48.9812 51.4229 49.6276 49.576Z" fill="#57C568"/>
<path d="M45.6621 43.3763C47.7994 44.1803 48.9098 46.4537 48.2557 48.6415C47.6414 50.6962 46.7461 53.2452 45.5947 55.3515C43.3742 59.4135 40.5446 61.4822 37.5419 59.585C33.634 57.1157 37.8906 51.7283 37.8906 51.7283C37.8906 51.7283 30.5992 53.8974 28.5863 48.7455C27.0765 44.8816 30.6534 41.3673 36.955 41.3866C39.7895 41.4062 43.1676 42.4379 45.6621 43.3763Z" fill="#57C568"/>
<path d="M55.4902 44.829C53.353 44.025 52.2425 41.7516 52.8966 39.5638C53.5109 37.5091 54.4062 34.9601 55.5576 32.8539C57.7781 28.7918 60.6078 26.7231 63.6104 28.6204C67.5183 31.0896 63.2618 36.477 63.2618 36.477C63.2618 36.477 70.5531 34.308 72.5661 39.4598C74.0758 43.3237 70.499 46.838 64.1974 46.8188C61.3628 46.7991 57.9848 45.7674 55.4902 44.829Z" fill="#57C568"/>
<path d="M185.521 31.3045C183.297 30.788 182.14 28.3854 183.062 26.2964C183.192 26.0017 183.332 25.7134 183.482 25.442C184.456 23.6793 185.691 22.7849 186.993 23.6161C188.688 24.6978 186.826 27.0331 186.826 27.0331C186.826 27.0331 190.002 26.1037 190.868 28.3487C191.517 30.0325 189.954 31.5543 187.213 31.5337C186.677 31.5276 186.096 31.4379 185.521 31.3045Z" fill="#57C568"/>
<path d="M177.645 29.5438C179.473 29.7824 180.466 31.8432 179.575 33.4575C178.943 34.6006 178.142 35.1806 177.298 34.6416C176.198 33.9401 177.406 32.4257 177.406 32.4257C177.406 32.4257 175.346 33.0284 174.785 31.5726C174.364 30.4807 175.377 29.4938 177.155 29.5072C177.313 29.509 177.478 29.522 177.645 29.5438Z" fill="#57C568"/>
<path d="M182.23 26.1702C181.897 28.4293 179.373 29.6448 177.358 28.5708C177.325 28.5534 177.293 28.5358 177.261 28.5181C175.805 27.7138 175.066 26.694 175.753 25.6183C176.646 24.2184 178.575 25.7561 178.575 25.7561C178.575 25.7561 177.807 23.1333 179.661 22.4183C181.052 21.8822 182.309 23.1728 182.292 25.4366C182.289 25.6728 182.267 25.9195 182.23 26.1702Z" fill="#57C568"/>
<path d="M180.356 34.4812C180.689 32.2221 183.213 31.0065 185.228 32.0806C185.261 32.098 185.293 32.1156 185.325 32.1333C186.781 32.9375 187.519 33.9574 186.833 35.0331C185.94 36.433 184.011 34.8952 184.011 34.8952C184.011 34.8952 184.779 37.5181 182.925 38.233C181.534 38.7692 180.277 37.4786 180.294 35.2148C180.297 34.9785 180.319 34.7319 180.356 34.4812Z" fill="#57C568"/>
<path d="M149.731 65.2907C147.564 64.5713 146.451 62.2645 147.199 60.1069C147.572 59.0299 148.039 57.8753 148.593 56.8723C150.086 54.1709 151.978 52.8002 153.975 54.0739C156.572 55.7317 153.719 59.3107 153.719 59.3107C153.719 59.3107 158.586 57.8863 159.913 61.3269C160.908 63.9074 158.513 66.2396 154.312 66.208C152.854 66.1914 151.182 65.7721 149.731 65.2907Z" fill="#57C568"/>
<path d="M140.554 63.3245C142.779 63.8365 143.938 66.2417 143.012 68.329C142.885 68.6143 142.749 68.8933 142.604 69.1562C141.636 70.908 140.409 71.7969 139.115 70.9709C137.43 69.8959 139.28 67.5749 139.28 67.5749C139.28 67.5749 136.124 68.4986 135.264 66.2675C134.618 64.5941 136.172 63.0817 138.896 63.1022C139.422 63.1082 139.991 63.1949 140.554 63.3245Z" fill="#57C568"/>
<path d="M146.212 60.0013C145.563 62.1906 143.228 63.3168 141.093 62.5078C140.397 62.2444 139.69 61.9363 139.057 61.5863C136.826 60.3538 135.694 58.7908 136.746 57.1424C138.115 54.9969 141.07 57.3536 141.07 57.3536C141.07 57.3536 139.894 53.3339 142.736 52.2383C144.867 51.4166 146.793 53.3945 146.767 56.8639C146.755 57.8568 146.518 58.9698 146.212 60.0013Z" fill="#57C568"/>
<path d="M144.265 68.7119C144.914 66.5227 147.249 65.3964 149.384 66.2054C150.079 66.4689 150.786 66.7769 151.42 67.1269C153.651 68.3594 154.783 69.9224 153.731 71.5709C152.362 73.7164 149.406 71.3596 149.406 71.3596C149.406 71.3596 150.582 75.3793 147.741 76.4749C145.61 77.2966 143.684 75.3187 143.71 71.8493C143.721 70.8564 143.959 69.7434 144.265 68.7119Z" fill="#57C568"/>
<path d="M343.729 27.5641C341.586 28.3538 339.279 27.2242 338.55 25.0604C338.222 24.0889 337.924 23.0274 337.76 22.0208C337.291 19.1319 337.9 17.0011 340.134 16.7819C343.043 16.4966 343.011 20.8374 343.011 20.8374C343.011 20.8374 345.807 16.9241 348.811 18.7131C351.065 20.0548 350.645 23.197 347.493 25.6341C346.446 26.4371 345.04 27.0807 343.729 27.5641Z" fill="#57C568"/>
<path d="M335.365 31.6275C337.413 30.6168 339.835 31.8053 340.358 34.028C340.411 34.2499 340.456 34.4714 340.491 34.6889C340.795 36.5623 340.401 37.9442 338.951 38.0863C337.065 38.2713 337.086 35.4564 337.086 35.4564C337.086 35.4564 335.273 37.9941 333.324 36.8339C331.863 35.9639 332.135 33.9262 334.179 32.3457C334.527 32.0793 334.935 31.8398 335.365 31.6275Z" fill="#57C568"/>
<path d="M337.744 25.5626C338.609 27.6759 337.463 30.0143 335.277 30.6755C334.662 30.8615 334.024 31.0219 333.411 31.1216C331.025 31.5091 329.265 31.0064 329.084 29.1608C328.849 26.7588 332.433 26.7853 332.433 26.7853C332.433 26.7853 329.202 24.4763 330.679 21.9949C331.787 20.1339 334.382 20.4809 336.395 23.0837C336.93 23.7821 337.38 24.6745 337.744 25.5626Z" fill="#57C568"/>
<path d="M341.541 33.5725C340.676 31.4593 341.822 29.1208 344.008 28.4596C344.623 28.2737 345.261 28.1132 345.874 28.0136C348.26 27.626 350.02 28.1287 350.201 29.9743C350.437 32.3763 346.852 32.3499 346.852 32.3499C346.852 32.3499 350.084 34.6588 348.606 37.1402C347.498 39.0012 344.903 38.6542 342.89 36.0514C342.355 35.353 341.905 34.4607 341.541 33.5725Z" fill="#57C568"/>
<g clip-path="url(#clip1_224_7196)">
<path d="M226.015 107.5C218.015 101.9 221.349 93.8333 224.015 90.5L235.016 96L238.516 107.5C235.516 110 230.016 110.3 226.015 107.5Z" fill="#57C568" stroke="#242424" stroke-width="2"/>
<path d="M303.846 110.591C312.067 103.808 308.642 94.0374 305.901 90L294.597 96.6617L291 110.591C294.083 113.619 299.735 113.982 303.846 110.591Z" fill="#57C568" stroke="#242424" stroke-width="2"/>
<path d="M303.05 162.376L303.051 162.376L303.054 162.377C306.077 163.873 309.276 165.457 312.507 167.361C313.987 168.234 315.471 169.172 316.944 170.198C326.368 176.76 335.432 186.957 340.038 206.517C340.456 208.292 339.08 210 337.19 210L313 210L220.985 210H196.809C194.92 210 193.544 208.292 193.962 206.517C198.568 186.957 207.632 176.76 217.056 170.198C218.529 169.172 220.013 168.234 221.493 167.361C224.724 165.457 227.923 163.873 230.946 162.377L230.949 162.376L230.951 162.375L230.951 162.375C230.951 162.375 230.951 162.375 230.951 162.375C231.318 162.193 231.681 162.013 232.042 161.835C233.9 160.912 236.518 159.47 239.192 157.889C246.472 153.585 250.405 145.931 251.219 137.656L252.64 123.206C252.791 121.671 254.083 120.5 255.626 120.5H278.476C279.987 120.5 281.262 121.623 281.452 123.122L283.501 139.262C284.506 147.172 288.389 154.46 295.493 158.421C297.871 159.746 300.195 160.959 301.958 161.835C302.319 162.014 302.684 162.194 303.05 162.376Z" fill="white" stroke="#242424" stroke-width="2"/>
<path d="M253.812 121.5H280.237L281.952 135C281.952 135 278.499 133 267.218 133C255.937 133 252.484 135 252.484 135L253.812 121.5Z" fill="#B4B4B4"/>
<path d="M290.905 155.205C293.858 157.741 297.724 159.733 301.957 161.835C302.311 162.01 302.669 162.187 303.028 162.365L303.472 161.469L303.028 162.365L303.05 162.376L303.05 162.376L303.053 162.377C305.462 163.569 307.981 164.816 310.544 166.239C311.452 166.744 312.013 167.719 312.013 168.786L311.999 210L221.984 210V168.785C221.984 167.718 222.545 166.744 223.454 166.24C226.016 164.817 228.536 163.569 230.945 162.377C230.945 162.377 230.945 162.377 230.946 162.377L230.949 162.376L230.949 162.375L230.95 162.375L230.95 162.375L230.951 162.375C231.317 162.193 231.68 162.013 232.041 161.835C236.274 159.733 240.14 157.741 243.093 155.205C243.226 155.392 243.38 155.598 243.557 155.819C244.348 156.811 245.598 158.11 247.459 159.401C251.191 161.989 257.317 164.5 266.999 164.5C276.681 164.5 282.808 161.989 286.539 159.401C288.4 158.11 289.65 156.811 290.442 155.819C290.618 155.598 290.772 155.392 290.905 155.205Z" fill="#57C568" stroke="#242424" stroke-width="2"/>
<path d="M242.838 88.178C243.899 90.0886 244.525 91.5184 244.813 92.6347C245.095 93.7323 245.033 94.4586 244.795 95.0244C244.549 95.6113 244.056 96.1685 243.198 96.8143C242.403 97.4125 241.39 98.0194 240.128 98.7753C240.016 98.842 239.903 98.9099 239.788 98.9791C237.358 100.436 234.68 100.288 232.021 98.8218C229.33 97.3374 226.706 94.5129 224.614 90.7486C224.307 90.1971 223.815 88.9172 223.333 87.1985C222.857 85.5034 222.413 83.4559 222.177 81.405C221.939 79.3435 221.919 77.3357 222.254 75.6943C222.592 74.0428 223.252 72.9255 224.233 72.3693C225.181 71.832 226.465 71.8647 228.119 72.5778C229.762 73.2863 231.593 74.5976 233.446 76.2911C237.146 79.6731 240.734 84.3935 242.838 88.178Z" fill="white" stroke="#242424" stroke-width="2"/>
<path d="M291.162 88.178C290.101 90.0886 289.475 91.5184 289.187 92.6347C288.905 93.7323 288.967 94.4586 289.205 95.0244C289.451 95.6113 289.944 96.1685 290.802 96.8143C291.597 97.4125 292.61 98.0194 293.872 98.7753C293.984 98.842 294.097 98.9099 294.212 98.9791C296.642 100.436 299.32 100.288 301.979 98.8218C304.67 97.3374 307.294 94.5129 309.386 90.7486C309.693 90.1971 310.185 88.9172 310.667 87.1985C311.143 85.5034 311.587 83.4559 311.823 81.405C312.061 79.3435 312.081 77.3357 311.746 75.6943C311.408 74.0428 310.748 72.9255 309.767 72.3693C308.819 71.832 307.535 71.8647 305.881 72.5778C304.238 73.2863 302.407 74.5976 300.554 76.2911C296.854 79.6731 293.266 84.3935 291.162 88.178Z" fill="white" stroke="#242424" stroke-width="2"/>
<path d="M226 76C226.819 76.2513 228.332 77.1323 229.909 78.9474M233 84C232.07 81.8268 230.975 80.1738 229.909 78.9474M226 82.7368C226.273 81.8947 227.437 79.9579 229.909 78.9474" stroke="#242424" stroke-width="2" stroke-linecap="round"/>
<path d="M308 76C307.181 76.2513 305.668 77.1323 304.091 78.9474M301 84C301.93 81.8268 303.025 80.1738 304.091 78.9474M308 82.7368C307.727 81.8947 306.563 79.9579 304.091 78.9474" stroke="#242424" stroke-width="2" stroke-linecap="round"/>
<path d="M304 81C304 94.6085 299.807 106.891 293.074 115.75C286.342 124.608 277.114 130 267 130C256.886 130 247.658 124.608 240.926 115.75C234.193 106.891 230 94.6085 230 81C230 67.3914 234.193 55.1087 240.926 46.2497C247.658 37.3915 256.886 32 267 32C277.114 32 286.342 37.3915 293.074 46.2497C299.807 55.1087 304 67.3914 304 81Z" fill="white" stroke="#242424" stroke-width="2"/>
<path d="M255 105.5C255 105.5 259.696 109 267 109C274.304 109 279 105 279 105" stroke="#242424" stroke-width="2" stroke-linecap="round" stroke-linejoin="round"/>
<path d="M268 69C267.37 76.5304 265.786 91.9064 264.264 96.3148C264.125 96.7163 264.193 97.1783 264.527 97.4404C265.87 98.4934 267.35 98.5 270 98.5" stroke="#242424" stroke-width="2" stroke-linecap="round" stroke-linejoin="round"/>
<ellipse cx="249.5" cy="83" rx="3.5" ry="4" fill="#242424"/>
<ellipse cx="284.5" cy="83" rx="3.5" ry="4" fill="#242424"/>
<path d="M253.583 69.0345C246.834 69.0748 242.822 69.4028 240.307 69.7777C239.851 69.8456 239.579 69.3566 239.937 69.0663C241.778 67.5758 244.833 66.4444 246.5 66.1212C248.685 65.6974 251.252 66.3849 253.868 68.1836C254.256 68.4508 254.055 69.0317 253.583 69.0345Z" fill="#242424"/>
<path d="M280.417 69.0345C287.166 69.0748 291.178 69.4028 293.693 69.7777C294.149 69.8456 294.421 69.3566 294.063 69.0663C292.222 67.5758 289.167 66.4444 287.5 66.1212C285.315 65.6974 282.748 66.3849 280.132 68.1836C279.744 68.4508 279.945 69.0317 280.417 69.0345Z" fill="#242424"/>
<ellipse cx="287.5" cy="95.5" rx="7.5" ry="3.5" fill="#57C568"/>
<ellipse cx="246.5" cy="95.5" rx="7.5" ry="3.5" fill="#57C568"/>
<path d="M208.5 62.5C208.5 77.3 218.5 83.6667 222.5 84.5C222 80 219 70.4 230 71.5C245 73 249.5 61 249.5 53C262.5 59.5 271 56.5 275 50C283 67.5 299.5 71.5 304 71.5C308.5 71.5 323.5 70 323.5 53C323.5 36 306.5 30 298 33C301.5 23 294 13 280 13C268.8 13 263 18.6667 261.5 21.5C254.5 14.5 247.5 14.5 245 14.5C221 14.5 222.333 33.5 226 43C220.167 43.3333 208.5 47.7 208.5 62.5Z" fill="#57C568" stroke="#242424" stroke-width="2" stroke-linejoin="round"/>
</g>
</g>
<defs>
<clipPath id="clip0_224_7196">
<rect width="366" height="200" rx="20" fill="white"/>
</clipPath>
<clipPath id="clip1_224_7196">
<rect width="150" height="199" fill="white" transform="translate(192 12)"/>
</clipPath>
</defs>
</svg>
