<svg width="445" height="200" viewBox="0 0 445 200" fill="none" xmlns="http://www.w3.org/2000/svg">
<g clip-path="url(#clip0_35_468)">
<rect width="445" height="200" rx="20" fill="#F6F6F6"/>
<path d="M261.162 125.915C260.328 128.041 258.061 129.15 255.865 128.523C253.266 127.781 249.781 126.616 246.954 125.071C242.036 122.382 239.531 118.956 241.828 115.32C244.818 110.588 251.342 115.742 251.342 115.742C251.342 115.742 248.715 106.913 254.953 104.476C259.632 102.648 263.887 106.979 263.864 114.609C263.838 118.34 262.365 122.848 261.162 125.915Z" fill="#57C568"/>
<path d="M259.628 136.576C260.382 134.421 262.669 133.304 264.844 134.002C266.288 134.467 267.925 135.085 269.316 135.845C272.505 137.589 274.13 139.811 272.64 142.168C270.701 145.237 266.471 141.895 266.471 141.895C266.471 141.895 268.174 147.62 264.129 149.201C261.094 150.386 258.335 147.577 258.35 142.629C258.363 140.688 258.981 138.423 259.628 136.576Z" fill="#57C568"/>
<path d="M255.662 130.376C257.799 131.18 258.91 133.454 258.256 135.642C257.641 137.696 256.746 140.245 255.595 142.352C253.374 146.414 250.545 148.482 247.542 146.585C243.634 144.116 247.891 138.728 247.891 138.728C247.891 138.728 240.599 140.897 238.586 135.746C237.077 131.882 240.653 128.367 246.955 128.387C249.79 128.406 253.168 129.438 255.662 130.376Z" fill="#57C568"/>
<path d="M265.49 131.829C263.353 131.025 262.243 128.752 262.897 126.564C263.511 124.509 264.406 121.96 265.558 119.854C267.778 115.792 270.608 113.723 273.61 115.62C277.518 118.09 273.262 123.477 273.262 123.477C273.262 123.477 280.553 121.308 282.566 126.46C284.076 130.324 280.499 133.838 274.197 133.819C271.363 133.799 267.985 132.768 265.49 131.829Z" fill="#57C568"/>
<path d="M223.521 64.3047C221.297 63.7881 220.14 61.3855 221.062 59.2965C221.192 59.0018 221.332 58.7135 221.482 58.4422C222.456 56.6794 223.691 55.785 224.993 56.6162C226.688 57.6979 224.826 60.0332 224.826 60.0332C224.826 60.0332 228.002 59.1038 228.868 61.3488C229.517 63.0326 227.954 64.5544 225.213 64.5338C224.677 64.5277 224.096 64.438 223.521 64.3047Z" fill="#57C568"/>
<path d="M215.645 62.5439C217.473 62.7825 218.466 64.8433 217.575 66.4576C216.943 67.6007 216.142 68.1807 215.298 67.6417C214.198 66.9403 215.406 65.4258 215.406 65.4258C215.406 65.4258 213.346 66.0285 212.785 64.5727C212.364 63.4808 213.377 62.4939 215.155 62.5073C215.313 62.5091 215.478 62.5221 215.645 62.5439Z" fill="#57C568"/>
<path d="M220.23 59.1703C219.897 61.4294 217.373 62.6449 215.358 61.5709C215.325 61.5535 215.293 61.5359 215.261 61.5182C213.805 60.714 213.066 59.6941 213.753 58.6184C214.646 57.2185 216.575 58.7563 216.575 58.7563C216.575 58.7563 215.807 56.1334 217.661 55.4185C219.052 54.8823 220.309 56.1729 220.292 58.4367C220.289 58.673 220.267 58.9196 220.23 59.1703Z" fill="#57C568"/>
<path d="M218.356 67.4813C218.689 65.2222 221.213 64.0067 223.228 65.0807C223.261 65.0981 223.293 65.1157 223.325 65.1334C224.781 65.9377 225.519 66.9575 224.833 68.0332C223.94 69.4331 222.011 67.8953 222.011 67.8953C222.011 67.8953 222.779 70.5182 220.925 71.2331C219.534 71.7693 218.277 70.4787 218.294 68.2149C218.297 67.9786 218.319 67.732 218.356 67.4813Z" fill="#57C568"/>
<path d="M193.731 167.291C191.564 166.572 190.451 164.265 191.199 162.107C191.572 161.03 192.039 159.876 192.593 158.873C194.086 156.171 195.978 154.8 197.975 156.074C200.572 157.732 197.719 161.311 197.719 161.311C197.719 161.311 202.586 159.887 203.913 163.327C204.908 165.908 202.513 168.24 198.312 168.208C196.854 168.192 195.182 167.772 193.731 167.291Z" fill="#57C568"/>
<path d="M184.554 165.325C186.779 165.837 187.938 168.242 187.012 170.329C186.885 170.615 186.749 170.894 186.604 171.156C185.636 172.908 184.409 173.797 183.115 172.971C181.43 171.896 183.28 169.575 183.28 169.575C183.28 169.575 180.124 170.499 179.264 168.268C178.618 166.594 180.172 165.082 182.896 165.102C183.422 165.108 183.991 165.195 184.554 165.325Z" fill="#57C568"/>
<path d="M190.212 162.002C189.563 164.191 187.228 165.317 185.093 164.508C184.397 164.245 183.69 163.937 183.057 163.587C180.826 162.354 179.694 160.791 180.746 159.143C182.115 156.997 185.07 159.354 185.07 159.354C185.07 159.354 183.894 155.334 186.736 154.239C188.867 153.417 190.793 155.395 190.767 158.864C190.755 159.857 190.518 160.97 190.212 162.002Z" fill="#57C568"/>
<path d="M188.265 170.712C188.914 168.523 191.249 167.397 193.384 168.206C194.079 168.469 194.786 168.777 195.42 169.127C197.651 170.36 198.783 171.923 197.731 173.571C196.362 175.717 193.406 173.36 193.406 173.36C193.406 173.36 194.582 177.38 191.741 178.475C189.61 179.297 187.684 177.319 187.71 173.85C187.721 172.857 187.959 171.744 188.265 170.712Z" fill="#57C568"/>
<path d="M422.729 27.5641C420.586 28.3538 418.279 27.2242 417.55 25.0604C417.222 24.0889 416.924 23.0274 416.76 22.0208C416.291 19.1319 416.9 17.0011 419.134 16.7819C422.043 16.4966 422.011 20.8374 422.011 20.8374C422.011 20.8374 424.807 16.9241 427.811 18.7131C430.065 20.0548 429.645 23.197 426.493 25.6341C425.446 26.4371 424.04 27.0807 422.729 27.5641Z" fill="#57C568"/>
<path d="M414.365 31.6275C416.413 30.6168 418.835 31.8053 419.358 34.028C419.411 34.2499 419.456 34.4714 419.491 34.6889C419.795 36.5623 419.401 37.9442 417.951 38.0863C416.065 38.2713 416.086 35.4564 416.086 35.4564C416.086 35.4564 414.273 37.9941 412.324 36.8339C410.863 35.9639 411.135 33.9262 413.179 32.3457C413.527 32.0793 413.935 31.8398 414.365 31.6275Z" fill="#57C568"/>
<path d="M416.744 25.5626C417.609 27.6759 416.463 30.0143 414.277 30.6755C413.662 30.8615 413.024 31.0219 412.411 31.1216C410.025 31.5091 408.265 31.0064 408.084 29.1608C407.849 26.7588 411.433 26.7853 411.433 26.7853C411.433 26.7853 408.202 24.4763 409.679 21.9949C410.787 20.1339 413.382 20.4809 415.395 23.0837C415.93 23.7821 416.38 24.6745 416.744 25.5626Z" fill="#57C568"/>
<path d="M420.541 33.5725C419.676 31.4593 420.822 29.1208 423.008 28.4596C423.623 28.2737 424.261 28.1132 424.874 28.0136C427.26 27.626 429.02 28.1287 429.201 29.9743C429.437 32.3763 425.852 32.3499 425.852 32.3499C425.852 32.3499 429.084 34.6588 427.606 37.1402C426.498 39.0012 423.903 38.6542 421.89 36.0514C421.355 35.353 420.905 34.4607 420.541 33.5725Z" fill="#57C568"/>
<g clip-path="url(#clip1_35_468)">
<path d="M305.015 107.5C297.015 101.9 300.349 93.8333 303.015 90.5L314.016 96L317.516 107.5C314.516 110 309.016 110.3 305.015 107.5Z" fill="#57C568" stroke="#242424" stroke-width="2"/>
<path d="M382.846 110.591C391.067 103.808 387.642 94.0374 384.901 90L373.597 96.6617L370 110.591C373.083 113.619 378.735 113.982 382.846 110.591Z" fill="#57C568" stroke="#242424" stroke-width="2"/>
<path d="M382.05 162.376L382.051 162.376L382.054 162.377C385.077 163.873 388.276 165.457 391.507 167.361C392.987 168.234 394.471 169.172 395.944 170.198C405.368 176.76 414.432 186.957 419.038 206.517C419.456 208.292 418.08 210 416.19 210L392 210L299.985 210H275.809C273.92 210 272.544 208.292 272.962 206.517C277.568 186.957 286.632 176.76 296.056 170.198C297.529 169.172 299.013 168.234 300.493 167.361C303.724 165.457 306.923 163.873 309.946 162.377L309.949 162.376L309.951 162.375L309.951 162.375C309.951 162.375 309.951 162.375 309.951 162.375C310.318 162.193 310.681 162.013 311.042 161.835C312.9 160.912 315.518 159.47 318.192 157.889C325.472 153.585 329.405 145.931 330.219 137.656L331.64 123.206C331.791 121.671 333.083 120.5 334.626 120.5H357.476C358.987 120.5 360.262 121.623 360.452 123.122L362.501 139.262C363.506 147.172 367.389 154.46 374.493 158.421C376.871 159.746 379.195 160.959 380.958 161.835C381.319 162.014 381.684 162.194 382.05 162.376Z" fill="white" stroke="#242424" stroke-width="2"/>
<path d="M332.812 121.5H359.237L360.952 135C360.952 135 357.499 133 346.218 133C334.937 133 331.484 135 331.484 135L332.812 121.5Z" fill="#B4B4B4"/>
<path d="M369.905 155.205C372.858 157.741 376.724 159.733 380.957 161.835C381.311 162.01 381.669 162.187 382.028 162.365L382.472 161.469L382.028 162.365L382.05 162.376L382.05 162.376L382.053 162.377C384.462 163.569 386.981 164.816 389.544 166.239C390.452 166.744 391.013 167.719 391.013 168.786L390.999 210L300.984 210V168.785C300.984 167.718 301.545 166.744 302.454 166.24C305.016 164.817 307.536 163.569 309.945 162.377C309.945 162.377 309.945 162.377 309.946 162.377L309.949 162.376L309.949 162.375L309.95 162.375L309.95 162.375L309.951 162.375C310.317 162.193 310.68 162.013 311.041 161.835C315.274 159.733 319.14 157.741 322.093 155.205C322.226 155.392 322.38 155.598 322.557 155.819C323.348 156.811 324.598 158.11 326.459 159.401C330.191 161.989 336.317 164.5 345.999 164.5C355.681 164.5 361.808 161.989 365.539 159.401C367.4 158.11 368.65 156.811 369.442 155.819C369.618 155.598 369.772 155.392 369.905 155.205Z" fill="#57C568" stroke="#242424" stroke-width="2"/>
<path d="M321.838 88.178C322.899 90.0886 323.525 91.5184 323.813 92.6347C324.095 93.7323 324.033 94.4586 323.795 95.0244C323.549 95.6113 323.056 96.1685 322.198 96.8143C321.403 97.4125 320.39 98.0194 319.128 98.7753C319.016 98.842 318.903 98.9099 318.788 98.9791C316.358 100.436 313.68 100.288 311.021 98.8218C308.33 97.3374 305.706 94.5129 303.614 90.7486C303.307 90.1971 302.815 88.9172 302.333 87.1985C301.857 85.5034 301.413 83.4559 301.177 81.405C300.939 79.3435 300.919 77.3357 301.254 75.6943C301.592 74.0428 302.252 72.9255 303.233 72.3693C304.181 71.832 305.465 71.8647 307.119 72.5778C308.762 73.2863 310.593 74.5976 312.446 76.2911C316.146 79.6731 319.734 84.3935 321.838 88.178Z" fill="white" stroke="#242424" stroke-width="2"/>
<path d="M370.162 88.178C369.101 90.0886 368.475 91.5184 368.187 92.6347C367.905 93.7323 367.967 94.4586 368.205 95.0244C368.451 95.6113 368.944 96.1685 369.802 96.8143C370.597 97.4125 371.61 98.0194 372.872 98.7753C372.984 98.842 373.097 98.9099 373.212 98.9791C375.642 100.436 378.32 100.288 380.979 98.8218C383.67 97.3374 386.294 94.5129 388.386 90.7486C388.693 90.1971 389.185 88.9172 389.667 87.1985C390.143 85.5034 390.587 83.4559 390.823 81.405C391.061 79.3435 391.081 77.3357 390.746 75.6943C390.408 74.0428 389.748 72.9255 388.767 72.3693C387.819 71.832 386.535 71.8647 384.881 72.5778C383.238 73.2863 381.407 74.5976 379.554 76.2911C375.854 79.6731 372.266 84.3935 370.162 88.178Z" fill="white" stroke="#242424" stroke-width="2"/>
<path d="M305 76C305.819 76.2513 307.332 77.1323 308.909 78.9474M312 84C311.07 81.8268 309.975 80.1738 308.909 78.9474M305 82.7368C305.273 81.8947 306.437 79.9579 308.909 78.9474" stroke="#242424" stroke-width="2" stroke-linecap="round"/>
<path d="M387 76C386.181 76.2513 384.668 77.1323 383.091 78.9474M380 84C380.93 81.8268 382.025 80.1738 383.091 78.9474M387 82.7368C386.727 81.8947 385.563 79.9579 383.091 78.9474" stroke="#242424" stroke-width="2" stroke-linecap="round"/>
<path d="M383 81C383 94.6085 378.807 106.891 372.074 115.75C365.342 124.608 356.114 130 346 130C335.886 130 326.658 124.608 319.926 115.75C313.193 106.891 309 94.6085 309 81C309 67.3914 313.193 55.1087 319.926 46.2497C326.658 37.3915 335.886 32 346 32C356.114 32 365.342 37.3915 372.074 46.2497C378.807 55.1087 383 67.3914 383 81Z" fill="white" stroke="#242424" stroke-width="2"/>
<path d="M334 105.5C334 105.5 338.696 109 346 109C353.304 109 358 105 358 105" stroke="#242424" stroke-width="2" stroke-linecap="round" stroke-linejoin="round"/>
<path d="M347 69C346.37 76.5304 344.786 91.9064 343.264 96.3148C343.125 96.7163 343.193 97.1783 343.527 97.4404C344.87 98.4934 346.35 98.5 349 98.5" stroke="#242424" stroke-width="2" stroke-linecap="round" stroke-linejoin="round"/>
<ellipse cx="328.5" cy="83" rx="3.5" ry="4" fill="#242424"/>
<ellipse cx="363.5" cy="83" rx="3.5" ry="4" fill="#242424"/>
<path d="M332.583 69.0345C325.834 69.0748 321.822 69.4028 319.307 69.7777C318.851 69.8456 318.579 69.3566 318.937 69.0663C320.778 67.5758 323.833 66.4444 325.5 66.1212C327.685 65.6974 330.252 66.3849 332.868 68.1836C333.256 68.4508 333.055 69.0317 332.583 69.0345Z" fill="#242424"/>
<path d="M359.417 69.0345C366.166 69.0748 370.178 69.4028 372.693 69.7777C373.149 69.8456 373.421 69.3566 373.063 69.0663C371.222 67.5758 368.167 66.4444 366.5 66.1212C364.315 65.6974 361.748 66.3849 359.132 68.1836C358.744 68.4508 358.945 69.0317 359.417 69.0345Z" fill="#242424"/>
<ellipse cx="366.5" cy="95.5" rx="7.5" ry="3.5" fill="#57C568"/>
<ellipse cx="325.5" cy="95.5" rx="7.5" ry="3.5" fill="#57C568"/>
<path d="M287.5 62.5C287.5 77.3 297.5 83.6667 301.5 84.5C301 80 298 70.4 309 71.5C324 73 328.5 61 328.5 53C341.5 59.5 350 56.5 354 50C362 67.5 378.5 71.5 383 71.5C387.5 71.5 402.5 70 402.5 53C402.5 36 385.5 30 377 33C380.5 23 373 13 359 13C347.8 13 342 18.6667 340.5 21.5C333.5 14.5 326.5 14.5 324 14.5C300 14.5 301.333 33.5 305 43C299.167 43.3333 287.5 47.7 287.5 62.5Z" fill="#57C568" stroke="#242424" stroke-width="2" stroke-linejoin="round"/>
</g>
</g>
<defs>
<clipPath id="clip0_35_468">
<rect width="445" height="200" rx="20" fill="white"/>
</clipPath>
<clipPath id="clip1_35_468">
<rect width="150" height="199" fill="white" transform="translate(271 12)"/>
</clipPath>
</defs>
</svg>
