<svg width="32" height="32" viewBox="0 0 32 32" fill="none" xmlns="http://www.w3.org/2000/svg">
<path fill-rule="evenodd" clip-rule="evenodd" d="M16.3107 5.38525C18.4787 4.01458 21.3587 3.63591 23.8467 4.43325C29.2587 6.17858 30.9387 12.0786 29.436 16.7732C27.1173 24.1466 17.2147 29.6466 16.7947 29.8772C16.6453 29.9599 16.48 30.0012 16.3147 30.0012C16.1493 30.0012 15.9853 29.9612 15.836 29.8799C15.4187 29.6519 5.588 24.2332 3.192 16.7746L3.19067 16.7732C1.68667 12.0772 3.36134 6.17591 8.768 4.43325C11.3067 3.61191 14.0733 3.97325 16.3107 5.38525ZM9.38134 6.33725C5.00667 7.74791 3.908 12.4532 5.096 16.1639C6.96534 21.9799 14.3507 26.6826 16.3133 27.8466C18.2827 26.6706 25.7213 21.9159 27.5307 16.1692C28.7187 12.4546 27.616 7.74925 23.2347 6.33725C21.112 5.65591 18.636 6.07058 16.9267 7.39325C16.5693 7.66791 16.0733 7.67325 15.7133 7.40125C13.9027 6.03991 11.5373 5.64125 9.38134 6.33725ZM21.9547 8.98511C23.772 9.57311 25.0453 11.1824 25.2013 13.0851C25.2453 13.6358 24.836 14.1184 24.2853 14.1624C24.2573 14.1651 24.2307 14.1664 24.2027 14.1664C23.6867 14.1664 23.2493 13.7704 23.2067 13.2478C23.1187 12.1518 22.3853 11.2264 21.3413 10.8891C20.8147 10.7184 20.5267 10.1544 20.696 9.63045C20.868 9.10511 21.4267 8.81978 21.9547 8.98511Z" fill="#57C568"/>
</svg>
