<svg width="32" height="32" viewBox="0 0 32 32" fill="none" xmlns="http://www.w3.org/2000/svg">
<g filter="url(#filter0_b_35_48)">
<rect width="32" height="32" rx="16" fill="white" fill-opacity="0.8"/>
<path d="M21.4352 12.4096C21.6392 13.457 21.3744 14.89 20.4412 16.4551C19.6732 17.7311 18.335 19.0088 17.1557 19.9843C16.5714 20.4677 16.0366 20.8684 15.6481 21.1481C15.5376 21.2276 15.439 21.2973 15.3547 21.3562C15.3083 21.3099 15.2569 21.2584 15.201 21.202C14.9247 20.9226 14.5406 20.5232 14.1111 20.0446C13.2479 19.0825 12.2189 17.8194 11.5074 16.5769C10.8306 15.395 10.4861 14.3508 10.5004 13.527C10.514 12.7488 10.8436 12.1493 11.619 11.7536C12.1083 11.5039 12.5114 11.5197 12.8596 11.6563C13.23 11.8017 13.5759 12.1004 13.8823 12.4757C14.1853 12.8468 14.4236 13.2607 14.5876 13.588C14.669 13.7503 14.7305 13.8881 14.7712 13.9842C14.7916 14.0322 14.8067 14.0696 14.8164 14.0942L14.8269 14.1213L14.8291 14.1271L14.8292 14.1274L14.8293 14.1277L14.8294 14.1279L14.8294 14.128L15.3862 15.6365L15.7827 14.0782L15.7827 14.0781L15.7828 14.0779L15.7829 14.0776L15.783 14.0771L15.7848 14.0704L15.7934 14.039C15.8014 14.0104 15.8139 13.9669 15.8312 13.9109C15.8659 13.7987 15.9195 13.6369 15.9938 13.4434C16.1431 13.0543 16.3718 12.5483 16.6913 12.0642C17.3377 11.0848 18.2671 10.3089 19.6027 10.5425C20.5991 10.7169 21.2367 11.3901 21.4352 12.4096Z" stroke="black"/>
</g>
<defs>
<filter id="filter0_b_35_48" x="-16" y="-16" width="64" height="64" filterUnits="userSpaceOnUse" color-interpolation-filters="sRGB">
<feFlood flood-opacity="0" result="BackgroundImageFix"/>
<feGaussianBlur in="BackgroundImageFix" stdDeviation="8"/>
<feComposite in2="SourceAlpha" operator="in" result="effect1_backgroundBlur_35_48"/>
<feBlend mode="normal" in="SourceGraphic" in2="effect1_backgroundBlur_35_48" result="shape"/>
</filter>
</defs>
</svg>
