<svg width="40" height="40" viewBox="0 0 40 40" fill="none" xmlns="http://www.w3.org/2000/svg">
<mask id="mask0_169_964" style="mask-type:alpha" maskUnits="userSpaceOnUse" x="3" y="3" width="34" height="34">
<path d="M25.1204 3.33325H14.8937C5.5537 3.33325 3.33203 5.55492 3.33203 14.8783V25.1049C3.33203 34.4433 5.53703 36.6666 14.877 36.6666H25.1037C34.442 36.6666 36.6654 34.4616 36.6654 25.1216V14.8949C36.6654 5.55492 34.4604 3.33325 25.1204 3.33325Z" fill="#3274F5"/>
</mask>
<g mask="url(#mask0_169_964)">
<path d="M28.8529 3.33325H11.1445C6.82981 3.33325 3.33203 6.83103 3.33203 11.1458V28.8541C3.33203 33.1688 6.82981 36.6666 11.1445 36.6666H28.8529C33.1676 36.6666 36.6654 33.1688 36.6654 28.8541V11.1458C36.6654 6.83103 33.1676 3.33325 28.8529 3.33325Z" fill="url(#paint0_radial_169_964)"/>
<path d="M28.8529 3.33325H11.1445C6.82981 3.33325 3.33203 6.83103 3.33203 11.1458V28.8541C3.33203 33.1688 6.82981 36.6666 11.1445 36.6666H28.8529C33.1676 36.6666 36.6654 33.1688 36.6654 28.8541V11.1458C36.6654 6.83103 33.1676 3.33325 28.8529 3.33325Z" fill="url(#paint1_radial_169_964)"/>
<path d="M20.0011 7.5C16.6064 7.5 16.1803 7.51488 14.847 7.5755C13.5163 7.6365 12.6079 7.84713 11.8131 8.15625C10.9909 8.4755 10.2935 8.90262 9.59875 9.59763C8.90338 10.2925 8.47625 10.9899 8.156 11.8118C7.846 12.6068 7.63512 13.5155 7.57525 14.8456C7.51562 16.179 7.5 16.6053 7.5 20.0001C7.5 23.395 7.515 23.8198 7.5755 25.153C7.63675 26.4838 7.84738 27.3921 8.15625 28.1869C8.47575 29.0091 8.90288 29.7065 9.59788 30.4013C10.2925 31.0966 10.9899 31.5248 11.8115 31.844C12.6069 32.1531 13.5154 32.3638 14.8459 32.4248C16.1793 32.4854 16.605 32.5003 19.9996 32.5003C23.3948 32.5003 23.8195 32.4854 25.1528 32.4248C26.4835 32.3638 27.3929 32.1531 28.1883 31.844C29.0101 31.5248 29.7065 31.0966 30.401 30.4013C31.0964 29.7065 31.5234 29.0091 31.8438 28.1873C32.151 27.3921 32.362 26.4835 32.4245 25.1533C32.4844 23.82 32.5 23.395 32.5 20.0001C32.5 16.6053 32.4844 16.1793 32.4245 14.8459C32.362 13.5151 32.151 12.6069 31.8438 11.8121C31.5234 10.9899 31.0964 10.2925 30.401 9.59763C29.7058 8.90237 29.0104 8.47525 28.1875 8.15637C27.3906 7.84712 26.4818 7.63638 25.151 7.5755C23.8176 7.51488 23.3931 7.5 19.9973 7.5H20.0011ZM18.8798 9.75263C19.2126 9.75213 19.584 9.75263 20.0011 9.75263C23.3388 9.75263 23.7343 9.76463 25.0523 9.8245C26.271 9.88025 26.9325 10.0839 27.3731 10.255C27.9565 10.4815 28.3724 10.7524 28.8096 11.19C29.2471 11.6275 29.5179 12.0441 29.745 12.6275C29.9161 13.0675 30.12 13.729 30.1755 14.9478C30.2354 16.2655 30.2484 16.6613 30.2484 19.9973C30.2484 23.3333 30.2354 23.7291 30.1755 25.0468C30.1198 26.2655 29.9161 26.927 29.745 27.3671C29.5185 27.9505 29.2471 28.3659 28.8096 28.8031C28.3721 29.2406 27.9568 29.5114 27.3731 29.738C26.933 29.9099 26.271 30.113 25.0523 30.1688C23.7345 30.2286 23.3388 30.2416 20.0011 30.2416C16.6634 30.2416 16.2678 30.2286 14.9501 30.1688C13.7314 30.1125 13.0699 29.9089 12.6289 29.7378C12.0456 29.5111 11.6289 29.2404 11.1914 28.8029C10.7539 28.3654 10.4831 27.9498 10.256 27.3661C10.0849 26.926 9.881 26.2645 9.8255 25.0458C9.76563 23.728 9.75363 23.3323 9.75363 19.9941C9.75363 16.6561 9.76563 16.2624 9.8255 14.9446C9.88125 13.7259 10.0849 13.0644 10.256 12.6238C10.4826 12.0404 10.7539 11.6238 11.1915 11.1863C11.629 10.7488 12.0456 10.4779 12.629 10.2509C13.0696 10.079 13.7314 9.87587 14.9501 9.81988C16.1033 9.76775 16.5501 9.75213 18.8798 9.7495V9.75263ZM26.6736 11.8281C25.8455 11.8281 25.1736 12.4994 25.1736 13.3276C25.1736 14.1558 25.8455 14.8276 26.6736 14.8276C27.5018 14.8276 28.1736 14.1558 28.1736 13.3276C28.1736 12.4995 27.5018 11.8276 26.6736 11.8276V11.8281ZM20.0011 13.5808C16.4561 13.5808 13.5819 16.455 13.5819 20.0001C13.5819 23.5453 16.4561 26.4181 20.0011 26.4181C23.5463 26.4181 26.4195 23.5453 26.4195 20.0001C26.4195 16.4551 23.546 13.5808 20.0009 13.5808H20.0011ZM20.0011 15.8334C22.3023 15.8334 24.1679 17.6988 24.1679 20.0001C24.1679 22.3013 22.3023 24.1669 20.0011 24.1669C17.6999 24.1669 15.8345 22.3013 15.8345 20.0001C15.8345 17.6988 17.6999 15.8334 20.0011 15.8334Z" fill="white"/>
</g>
<defs>
<radialGradient id="paint0_radial_169_964" cx="0" cy="0" r="1" gradientUnits="userSpaceOnUse" gradientTransform="translate(12.1862 39.2339) rotate(-90) scale(33.0358 30.7259)">
<stop stop-color="#FFDD55"/>
<stop offset="0.1" stop-color="#FFDD55"/>
<stop offset="0.5" stop-color="#FF543E"/>
<stop offset="1" stop-color="#C837AB"/>
</radialGradient>
<radialGradient id="paint1_radial_169_964" cx="0" cy="0" r="1" gradientUnits="userSpaceOnUse" gradientTransform="translate(-2.25143 5.73442) rotate(78.681) scale(14.7672 60.8708)">
<stop stop-color="#3771C8"/>
<stop offset="0.128" stop-color="#3771C8"/>
<stop offset="1" stop-color="#6600FF" stop-opacity="0"/>
</radialGradient>
</defs>
</svg>
