<svg width="102" height="48" viewBox="0 0 102 48" fill="none" xmlns="http://www.w3.org/2000/svg">
<path d="M56.6244 10.0313C56.6244 10.0313 54.7594 8.28514 53.7593 6.5549C52.8158 4.92279 52.6903 3.49789 53.9751 2.8484C55.6471 2.00309 56.6244 4.62608 56.6244 4.62608C56.6244 4.62608 57.3964 1.62079 59.602 2.00309C61.2562 2.28981 61.7264 4.28049 60.4031 6.4787C59.3003 8.29462 56.6244 10.0313 56.6244 10.0313Z" fill="#F72A63"/>
<path d="M1.13376 33.6533C0.829047 33.6533 0.582031 33.4063 0.582031 33.1016V14.0478C0.582031 13.7431 0.829047 13.4961 1.13376 13.4961H4.24894C4.55365 13.4961 4.80066 13.7431 4.80066 14.0478V33.1016C4.80066 33.4063 4.55365 33.6533 4.24894 33.6533H1.13376Z" fill="#57C568"/>
<path d="M11.4417 33.6533C11.137 33.6533 10.89 33.4063 10.89 33.1016V14.0478C10.89 13.7431 11.137 13.4961 11.4417 13.4961H14.2645C14.4435 13.4961 14.6113 13.5829 14.7148 13.729L23.2963 25.8494C23.4517 26.0689 23.7973 25.959 23.7973 25.69V14.0478C23.7973 13.7431 24.0443 13.4961 24.349 13.4961H27.4223C27.727 13.4961 27.974 13.7431 27.974 14.0478V33.1016C27.974 33.4063 27.727 33.6533 27.4223 33.6533H24.628C24.4487 33.6533 24.2806 33.5661 24.1772 33.4196L15.568 21.2188C15.4128 20.9989 15.0667 21.1087 15.0667 21.3779V33.1016C15.0667 33.4063 14.8197 33.6533 14.515 33.6533H11.4417Z" fill="#57C568"/>
<path d="M41.411 34.0304C39.8092 34.0304 38.4124 33.7976 37.2203 33.332C36.0376 32.857 35.1064 32.1819 34.4265 31.3065C33.7953 30.4736 33.4704 29.5097 33.3372 28.4965C33.2957 28.181 33.5501 27.912 33.8684 27.912H36.8158C37.0824 27.912 37.3052 28.1047 37.3833 28.3596C37.5023 28.7478 37.6886 29.0992 37.9886 29.4067C38.3704 29.7792 38.8594 30.0726 39.4554 30.2868C40.0607 30.5009 40.7452 30.608 41.5088 30.608C42.2911 30.608 42.9662 30.5009 43.5343 30.2868C44.1024 30.0726 44.5401 29.7699 44.8474 29.3788C45.1547 28.9876 45.3084 28.536 45.3084 28.0238V28.0098C45.3084 27.3393 45.0383 26.8085 44.4982 26.4174C43.9674 26.0262 43.078 25.7049 41.8301 25.4535L39.6928 25.0205C37.6906 24.62 36.1913 23.9402 35.1948 22.981C34.1984 22.0218 33.7001 20.7832 33.7001 19.2652V19.2513C33.7095 18.022 34.0401 16.951 34.6919 16.0384C35.3531 15.1165 36.2611 14.3994 37.4159 13.8872C38.58 13.375 39.9024 13.1189 41.3831 13.1189C42.9476 13.1189 44.2933 13.3657 45.4201 13.8593C46.547 14.3435 47.427 15.028 48.0603 15.9127C48.66 16.7384 48.9627 17.6705 49.0845 18.6564C49.1233 18.9708 48.8694 19.2373 48.5526 19.2373H45.6624C45.3754 19.2373 45.1426 19.015 45.0707 18.7372C44.9738 18.3627 44.8005 18.0124 44.5401 17.7147C44.2141 17.3422 43.7811 17.0535 43.241 16.8486C42.7101 16.6437 42.0908 16.5413 41.3831 16.5413C40.6753 16.5413 40.0607 16.6484 39.5392 16.8626C39.027 17.0675 38.6265 17.3515 38.3378 17.7147C38.0585 18.0779 37.9188 18.5016 37.9188 18.9859V18.9998C37.9188 19.6424 38.1889 20.1593 38.729 20.5504C39.2691 20.9415 40.1212 21.2581 41.2853 21.5003L43.4086 21.9333C44.8241 22.2127 45.9835 22.5992 46.8869 23.0927C47.7902 23.5863 48.456 24.2103 48.8844 24.9646C49.3128 25.7096 49.527 26.6083 49.527 27.6606V27.6746C49.527 28.969 49.2011 30.0958 48.5492 31.055C47.9066 32.0049 46.98 32.7406 45.7693 33.2621C44.5587 33.7743 43.1059 34.0304 41.411 34.0304Z" fill="#57C568"/>
<path d="M55.3858 33.6533C55.0811 33.6533 54.834 33.4063 54.834 33.1016V14.0478C54.834 13.7431 55.0811 13.4961 55.3858 13.4961H58.501C58.8057 13.4961 59.0527 13.7431 59.0527 14.0478V33.1016C59.0527 33.4063 58.8057 33.6533 58.501 33.6533H55.3858Z" fill="#57C568"/>
<path d="M65.6937 33.6533C65.389 33.6533 65.142 33.4063 65.142 33.1016V14.0478C65.142 13.7431 65.389 13.4961 65.6937 13.4961H72.8808C74.8923 13.4961 76.6105 13.8872 78.0354 14.6695C79.4695 15.4424 80.5637 16.5692 81.3181 18.0499C82.0817 19.5307 82.4635 21.3326 82.4635 23.4559V23.4839C82.4635 25.6258 82.0817 27.4557 81.3181 28.9737C80.5637 30.4916 79.4742 31.6511 78.0493 32.4519C76.6245 33.2528 74.9016 33.6533 72.8808 33.6533H65.6937ZM69.3606 29.6233C69.3606 29.928 69.6076 30.175 69.9123 30.175H72.35C73.6072 30.175 74.6642 29.9236 75.5209 29.4207C76.387 28.9085 77.0436 28.1588 77.4906 27.1717C77.9376 26.1845 78.1611 24.9646 78.1611 23.5118V23.4839C78.1611 22.087 77.9329 20.9043 77.4766 19.9358C77.0203 18.9672 76.3591 18.2315 75.493 17.7287C74.6269 17.2258 73.5793 16.9743 72.35 16.9743H69.9123C69.6076 16.9743 69.3606 17.2213 69.3606 17.5261V29.6233Z" fill="#57C568"/>
<path d="M88.434 33.6533C88.1293 33.6533 87.8823 33.4063 87.8823 33.1016V14.0478C87.8823 13.7431 88.1293 13.4961 88.434 13.4961H100.685C100.99 13.4961 101.237 13.7431 101.237 14.0478V16.4226C101.237 16.7273 100.99 16.9743 100.685 16.9743H92.6527C92.348 16.9743 92.101 17.2213 92.101 17.5261V21.2698C92.101 21.5745 92.348 21.8216 92.6527 21.8216H100.168C100.473 21.8216 100.72 22.0686 100.72 22.3733V24.5525C100.72 24.8573 100.473 25.1043 100.168 25.1043H92.6527C92.348 25.1043 92.101 25.3513 92.101 25.656V29.6233C92.101 29.928 92.348 30.175 92.6527 30.175H100.685C100.99 30.175 101.237 30.422 101.237 30.7267V33.1016C101.237 33.4063 100.99 33.6533 100.685 33.6533H88.434Z" fill="#57C568"/>
</svg>
