<svg width="445" height="200" viewBox="0 0 445 200" fill="none" xmlns="http://www.w3.org/2000/svg">
<g clip-path="url(#clip0_35_337)">
<rect width="445" height="200" rx="20" fill="#57C568"/>
<path d="M347.776 108.434C345.585 109.077 343.305 108.099 342.223 106.088C335.936 94.4107 315.433 54.6851 307.542 19.2382C298.699 -20.4789 305.428 -50.5441 336.268 -55.3886C376.407 -61.6938 379.463 -1.42225 379.463 -1.42225C379.463 -1.42225 415.111 -57.9894 458.256 -35.5835C490.615 -18.7791 487.317 25.171 445.54 61.5378C415.717 87.2962 362.241 104.188 347.776 108.434Z" fill="#F6F6F6"/>
<path d="M328.247 135.406C330.434 134.748 332.726 135.712 333.797 137.729C338.473 146.536 350.774 170.956 355.65 192.858C361.384 218.614 357.02 238.111 337.021 241.252C310.992 245.341 309.01 206.256 309.01 206.256C309.01 206.256 285.893 242.939 257.914 228.409C236.93 217.512 239.068 189.011 266.16 165.427C284.688 149.424 317.295 138.699 328.247 135.406Z" fill="#F6F6F6"/>
<path d="M327.962 115.153C328.611 117.342 327.661 119.651 325.648 120.729C315.329 126.254 283.215 142.667 254.501 149.06C221.701 156.363 196.872 150.805 192.871 125.336C187.664 92.1882 237.439 89.6641 237.439 89.6641C237.439 89.6641 190.723 60.2247 209.227 24.5936C223.105 -2.12966 259.401 0.593911 289.434 35.095C310.321 59.2785 324.149 102.294 327.962 115.153Z" fill="#F6F6F6"/>
<path d="M351.534 129.771C350.885 127.582 351.835 125.272 353.849 124.194C364.167 118.669 396.281 102.256 424.995 95.8633C457.795 88.5608 482.624 94.118 486.625 119.587C491.832 152.735 442.057 155.259 442.057 155.259C442.057 155.259 488.773 184.699 470.269 220.33C456.391 247.053 420.095 244.329 390.062 209.828C369.175 185.645 355.347 142.629 351.534 129.771Z" fill="#F6F6F6"/>
<g clip-path="url(#clip1_35_337)">
<path d="M294 88L294 127.36C294 134.811 297.755 141.614 305.056 143.102C312.256 144.57 323.822 145.833 342.333 145.833C368.266 145.833 382.135 143.8 389.04 141.895C393.233 140.737 395 136.882 395 132.532L395 88C395 65.5 390.5 22 344.5 22C298.5 22 294 54 294 88Z" fill="#242424"/>
<rect x="331" y="126" width="30" height="16" fill="white" stroke="#242424" stroke-width="2"/>
<path opacity="0.6" d="M332 127H360V134C360 134 356.938 132.444 346 132.444C335.062 132.444 332 134 332 134V127Z" fill="#B4B4B4"/>
<path d="M321.838 88.178C322.899 90.0886 323.525 91.5184 323.813 92.6347C324.095 93.7323 324.033 94.4586 323.795 95.0244C323.549 95.6113 323.056 96.1685 322.198 96.8143C321.403 97.4125 320.39 98.0194 319.128 98.7753C319.016 98.842 318.903 98.9099 318.788 98.9791C316.358 100.436 313.68 100.288 311.021 98.8218C308.33 97.3374 305.706 94.5129 303.614 90.7486C303.307 90.1971 302.815 88.9172 302.333 87.1985C301.857 85.5034 301.413 83.4559 301.177 81.405C300.939 79.3435 300.919 77.3357 301.254 75.6943C301.592 74.0428 302.252 72.9255 303.233 72.3693C304.181 71.832 305.465 71.8647 307.119 72.5778C308.762 73.2863 310.593 74.5976 312.446 76.2911C316.146 79.6731 319.734 84.3935 321.838 88.178Z" fill="white" stroke="#242424" stroke-width="2"/>
<path d="M305 76C305.819 76.2513 307.332 77.1323 308.909 78.9474M312 84C311.07 81.8268 309.975 80.1738 308.909 78.9474M305 82.7368C305.273 81.8947 306.437 79.9579 308.909 78.9474" stroke="#242424" stroke-width="2" stroke-linecap="round"/>
<path d="M382.05 162.375L382.051 162.376L382.054 162.377C382.054 162.377 382.054 162.377 382.054 162.377C386.464 164.56 391.253 166.931 395.944 170.198C405.368 176.76 414.432 186.957 419.038 206.517C419.456 208.291 418.08 210 416.19 210H275.808C273.919 210 272.544 208.292 272.962 206.517C277.568 186.957 286.632 176.76 296.056 170.198C300.747 166.931 305.536 164.56 309.946 162.377L309.949 162.376L309.95 162.375C310.316 162.194 310.681 162.014 311.042 161.835C315.725 159.51 319.958 157.319 323.004 154.377C323.615 153.787 323.96 152.933 324.157 151.991C324.355 151.042 324.416 149.945 324.414 148.807C324.411 147.667 324.344 146.463 324.279 145.301L324.276 145.246C324.22 144.245 324.166 143.278 324.153 142.393C330.005 140.955 337.287 140 346 140C354.713 140 361.995 140.955 367.847 142.393C367.834 143.278 367.78 144.245 367.724 145.246L367.721 145.301C367.656 146.463 367.589 147.667 367.586 148.807C367.584 149.945 367.645 151.042 367.843 151.991C368.04 152.933 368.385 153.787 368.996 154.377C372.042 157.319 376.275 159.51 380.958 161.835C381.316 162.012 381.677 162.191 382.041 162.371L382.05 162.375Z" fill="#57C568" stroke="#242424" stroke-width="2"/>
<path d="M383 81C383 94.6085 378.807 106.891 372.074 115.75C365.342 124.608 356.114 130 346 130C335.886 130 326.658 124.608 319.926 115.75C313.193 106.891 309 94.6085 309 81C309 67.3914 313.193 55.1087 319.926 46.2497C326.658 37.3915 335.886 32 346 32C356.114 32 365.342 37.3915 372.074 46.2497C378.807 55.1087 383 67.3914 383 81Z" fill="white" stroke="#242424" stroke-width="2"/>
<path d="M334 105.5C334 105.5 338.696 109 346 109C353.304 109 358 105 358 105" stroke="#242424" stroke-width="2" stroke-linecap="round" stroke-linejoin="round"/>
<path d="M347 69C346.37 76.5304 344.786 91.9064 343.264 96.3148C343.125 96.7163 343.193 97.1783 343.527 97.4404C344.87 98.4934 346.35 98.5 349 98.5" stroke="#242424" stroke-width="2" stroke-linecap="round" stroke-linejoin="round"/>
<ellipse cx="328.5" cy="83" rx="3.5" ry="4" fill="#242424"/>
<ellipse cx="363.5" cy="83" rx="3.5" ry="4" fill="#242424"/>
<path d="M332.583 69.0345C325.834 69.0748 321.822 69.4028 319.307 69.7777C318.851 69.8456 318.579 69.3566 318.937 69.0663C320.778 67.5758 323.833 66.4444 325.5 66.1212C327.685 65.6974 330.252 66.3849 332.868 68.1836C333.256 68.4508 333.055 69.0317 332.583 69.0345Z" fill="#242424"/>
<path d="M359.417 69.0345C366.166 69.0748 370.178 69.4028 372.693 69.7777C373.149 69.8456 373.421 69.3566 373.063 69.0663C371.222 67.5758 368.167 66.4444 366.5 66.1212C364.315 65.6974 361.748 66.3849 359.132 68.1836C358.744 68.4508 358.945 69.0317 359.417 69.0345Z" fill="#242424"/>
<path d="M329.5 49.5001C320.3 70.3001 310.667 72.8334 307 71.5001L309 52.0001C309 52.0001 318 28.5001 346 29.0001C374 29.5001 390.5 66.5001 390.5 66.5001C388.667 80.8334 384.4 106.1 382 92.5001C379.6 78.9001 360.333 61.1667 351 54.0001C352.5 58.6667 358.2 70.3001 369 79.5001C359.5 77.5001 343.5 68.0001 329.5 49.5001Z" fill="#242424"/>
<path fill-rule="evenodd" clip-rule="evenodd" d="M308.005 79.0645C308.066 76.0234 310.724 74 313.544 74H334.366C336.774 74 339.036 75.4832 339.706 77.7344C339.962 77.6666 340.263 77.5938 340.606 77.5215C341.856 77.2583 343.676 77 346 77C348.324 77 350.144 77.2583 351.394 77.5215C351.737 77.5938 352.038 77.6666 352.294 77.7344C352.964 75.4832 355.226 74 357.634 74H378.456C381.276 74 383.934 76.0234 383.995 79.0645C384.066 82.6288 383.414 86.8416 381.145 90.1938C378.834 93.6084 374.931 96 368.817 96C362.837 96 358.784 93.7149 356.166 90.4557C353.616 87.2824 352.49 83.2694 352.134 79.766C351.859 79.6848 351.474 79.5821 350.981 79.4785C349.856 79.2417 348.176 79 346 79C343.824 79 342.144 79.2417 341.019 79.4785C340.526 79.5821 340.141 79.6848 339.866 79.766C339.51 83.2694 338.384 87.2824 335.834 90.4557C333.216 93.7149 329.163 96 323.183 96C317.069 96 313.166 93.6084 310.855 90.1938C308.586 86.8416 307.934 82.6288 308.005 79.0645ZM313.544 76C311.585 76 310.039 77.3666 310.005 79.1043C309.938 82.4495 310.563 86.1945 312.511 89.0727C314.417 91.8885 317.671 94 323.183 94C328.582 94 332.052 91.9701 334.275 89.203C336.532 86.394 337.572 82.7369 337.89 79.4289C338.067 77.5799 336.48 76 334.366 76H313.544ZM378.456 76C380.415 76 381.961 77.3666 381.995 79.1043C382.062 82.4495 381.437 86.1945 379.489 89.0727C377.583 91.8885 374.329 94 368.817 94C363.418 94 359.948 91.9701 357.725 89.203C355.468 86.394 354.428 82.7369 354.11 79.4289C353.933 77.5799 355.52 76 357.634 76H378.456Z" fill="#57C568"/>
</g>
<path d="M178.63 159.674C176.351 159.532 174.831 157.317 175.451 155.12C175.522 154.871 175.6 154.626 175.686 154.391C176.354 152.574 177.396 151.544 178.755 152.143C180.524 152.923 179.096 155.414 179.096 155.414C179.096 155.414 181.978 154.067 183.129 156.074C183.992 157.579 182.729 159.253 180.121 159.634C179.656 159.7 179.145 159.706 178.63 159.674Z" fill="#F6F6F6"/>
<path d="M170.741 159.141C172.514 159.101 173.759 160.914 173.147 162.578C172.714 163.756 172.038 164.425 171.156 164.036C170.009 163.53 170.936 161.914 170.936 161.914C170.936 161.914 169.067 162.788 168.321 161.487C167.761 160.511 168.58 159.425 170.271 159.178C170.421 159.157 170.579 159.145 170.741 159.141Z" fill="#F6F6F6"/>
<path d="M174.601 155.159C174.653 157.417 172.344 159.002 170.225 158.223C168.724 157.671 167.873 156.81 168.368 155.688C169.013 154.227 171.07 155.406 171.07 155.406C171.07 155.406 169.957 153.026 171.614 152.076C172.857 151.364 174.24 152.406 174.555 154.56C174.582 154.752 174.597 154.953 174.601 155.159Z" fill="#F6F6F6"/>
<path d="M174.039 163.543C173.988 161.286 176.297 159.701 178.416 160.48C179.917 161.031 180.767 161.892 180.272 163.015C179.628 164.475 177.571 163.296 177.571 163.296C177.571 163.296 178.683 165.676 177.026 166.626C175.783 167.339 174.401 166.296 174.086 164.143C174.059 163.951 174.044 163.749 174.039 163.543Z" fill="#F6F6F6"/>
<path d="M168.878 4.08401C166.729 4.85753 164.401 3.88259 163.426 1.81768C162.272 -0.626565 160.852 -4.01539 160.152 -7.15982C158.934 -12.6314 159.861 -16.7734 164.109 -17.4408C169.639 -18.3094 170.06 -10.0061 170.06 -10.0061C170.06 -10.0061 174.971 -17.7991 180.915 -14.7123C185.373 -12.3973 184.919 -6.34249 179.163 -1.3324C176.34 1.10629 171.977 2.96809 168.878 4.08401Z" fill="#F6F6F6"/>
<path d="M159.847 9.95275C161.966 9.10019 164.313 10.0849 165.22 12.1805C165.823 13.5734 166.436 15.2117 166.781 16.7589C167.571 20.3071 166.969 22.9931 164.214 23.4259C160.628 23.9892 160.355 18.6046 160.355 18.6046C160.355 18.6046 157.171 23.6583 153.316 21.6566C150.425 20.1553 150.72 16.2288 154.452 12.9799C155.921 11.7112 158.032 10.6833 159.847 9.95275Z" fill="#F6F6F6"/>
<path d="M161.898 2.88559C162.701 5.02309 161.723 7.3563 159.646 8.30576C157.695 9.19746 155.188 10.2034 152.845 10.7251C148.326 11.7311 144.906 10.9655 144.354 7.45673C143.637 2.89011 150.494 2.54237 150.494 2.54237C150.494 2.54237 144.059 -1.51335 146.608 -6.42207C148.52 -10.1036 153.52 -9.72839 157.657 -4.97535C159.51 -2.83011 160.96 0.390784 161.898 2.88559Z" fill="#F6F6F6"/>
<path d="M167.278 11.2359C166.475 9.09837 167.453 6.76515 169.53 5.8157C171.48 4.924 173.988 3.91805 176.331 3.39639C180.85 2.39036 184.27 3.15595 184.821 6.66473C185.539 11.2314 178.681 11.5791 178.681 11.5791C178.681 11.5791 185.117 15.6348 182.568 20.5435C180.656 24.2251 175.656 23.8499 171.518 19.0968C169.665 16.9516 168.216 13.7307 167.278 11.2359Z" fill="#F6F6F6"/>
<path d="M212.878 198.084C210.729 198.858 208.401 197.883 207.426 195.818C206.272 193.373 204.852 189.985 204.152 186.84C202.934 181.369 203.861 177.227 208.109 176.559C213.639 175.691 214.06 183.994 214.06 183.994C214.06 183.994 218.971 176.201 224.915 179.288C229.373 181.603 228.919 187.658 223.163 192.668C220.34 195.106 215.977 196.968 212.878 198.084Z" fill="#F6F6F6"/>
<path d="M205.898 196.886C206.701 199.023 205.723 201.356 203.646 202.306C201.695 203.197 199.188 204.203 196.845 204.725C192.326 205.731 188.906 204.966 188.354 201.457C187.637 196.89 194.494 196.542 194.494 196.542C194.494 196.542 188.059 192.487 190.608 187.578C192.52 183.896 197.52 184.272 201.657 189.025C203.51 191.17 204.96 194.391 205.898 196.886Z" fill="#F6F6F6"/>
<path d="M211.278 205.236C210.475 203.098 211.453 200.765 213.53 199.816C215.48 198.924 217.988 197.918 220.331 197.396C224.85 196.39 228.27 197.156 228.821 200.665C229.539 205.231 222.681 205.579 222.681 205.579C222.681 205.579 229.117 209.635 226.568 214.544C224.656 218.225 219.656 217.85 215.518 213.097C213.665 210.952 212.216 207.731 211.278 205.236Z" fill="#F6F6F6"/>
</g>
<defs>
<clipPath id="clip0_35_337">
<rect width="445" height="200" rx="20" fill="white"/>
</clipPath>
<clipPath id="clip1_35_337">
<rect width="150" height="189" fill="white" transform="translate(271 22)"/>
</clipPath>
</defs>
</svg>
