<svg width="366" height="200" viewBox="0 0 366 200" fill="none" xmlns="http://www.w3.org/2000/svg">
<g clip-path="url(#clip0_224_7069)">
<rect width="366" height="200" rx="20" fill="#57C568"/>
<path d="M268.776 108.434C266.585 109.077 264.305 108.099 263.223 106.088C256.936 94.4107 236.433 54.6851 228.542 19.2382C219.699 -20.4789 226.428 -50.5441 257.268 -55.3886C297.407 -61.6938 300.463 -1.42225 300.463 -1.42225C300.463 -1.42225 336.111 -57.9894 379.256 -35.5835C411.615 -18.7791 408.317 25.171 366.54 61.5378C336.717 87.2962 283.241 104.188 268.776 108.434Z" fill="#F6F6F6"/>
<path d="M249.247 135.406C251.434 134.748 253.726 135.712 254.797 137.729C259.473 146.536 271.774 170.956 276.65 192.858C282.384 218.614 278.02 238.111 258.021 241.252C231.992 245.341 230.01 206.256 230.01 206.256C230.01 206.256 206.893 242.939 178.914 228.409C157.93 217.512 160.068 189.011 187.16 165.427C205.688 149.424 238.295 138.699 249.247 135.406Z" fill="#F6F6F6"/>
<path d="M248.966 115.153C249.615 117.342 248.665 119.651 246.651 120.729C236.333 126.254 204.219 142.667 175.505 149.06C142.705 156.363 117.876 150.805 113.875 125.336C108.668 92.1882 158.443 89.6641 158.443 89.6641C158.443 89.6641 111.727 60.2247 130.231 24.5936C144.109 -2.12966 180.405 0.593911 210.438 35.095C231.325 59.2785 245.153 102.294 248.966 115.153Z" fill="#F6F6F6"/>
<path d="M272.534 129.771C271.885 127.582 272.835 125.272 274.849 124.194C285.167 118.669 317.281 102.256 345.995 95.8633C378.795 88.5608 403.624 94.118 407.625 119.587C412.832 152.735 363.057 155.259 363.057 155.259C363.057 155.259 409.773 184.699 391.269 220.33C377.391 247.053 341.095 244.329 311.062 209.828C290.175 185.645 276.347 142.629 272.534 129.771Z" fill="#F6F6F6"/>
<g clip-path="url(#clip1_224_7069)">
<path d="M215 88L215 127.36C215 134.811 218.755 141.614 226.056 143.102C233.256 144.57 244.822 145.833 263.333 145.833C289.266 145.833 303.135 143.8 310.04 141.895C314.233 140.737 316 136.882 316 132.532L316 88C316 65.5 311.5 22 265.5 22C219.5 22 215 54 215 88Z" fill="#242424"/>
<rect x="252" y="126" width="30" height="16" fill="white" stroke="#242424" stroke-width="2"/>
<path opacity="0.6" d="M253 127H281V134C281 134 277.938 132.444 267 132.444C256.062 132.444 253 134 253 134V127Z" fill="#B4B4B4"/>
<path d="M242.838 88.178C243.899 90.0886 244.525 91.5184 244.813 92.6347C245.095 93.7323 245.033 94.4586 244.795 95.0244C244.549 95.6113 244.056 96.1685 243.198 96.8143C242.403 97.4125 241.39 98.0194 240.128 98.7753C240.016 98.842 239.903 98.9099 239.788 98.9791C237.358 100.436 234.68 100.288 232.021 98.8218C229.33 97.3374 226.706 94.5129 224.614 90.7486C224.307 90.1971 223.815 88.9172 223.333 87.1985C222.857 85.5034 222.413 83.4559 222.177 81.405C221.939 79.3435 221.919 77.3357 222.254 75.6943C222.592 74.0428 223.252 72.9255 224.233 72.3693C225.181 71.832 226.465 71.8647 228.119 72.5778C229.762 73.2863 231.593 74.5976 233.446 76.2911C237.146 79.6731 240.734 84.3935 242.838 88.178Z" fill="white" stroke="#242424" stroke-width="2"/>
<path d="M226 76C226.819 76.2513 228.332 77.1323 229.909 78.9474M233 84C232.07 81.8268 230.975 80.1738 229.909 78.9474M226 82.7368C226.273 81.8947 227.437 79.9579 229.909 78.9474" stroke="#242424" stroke-width="2" stroke-linecap="round"/>
<path d="M303.05 162.375L303.051 162.376L303.054 162.377C303.054 162.377 303.054 162.377 303.054 162.377C307.464 164.56 312.253 166.931 316.944 170.198C326.368 176.76 335.432 186.957 340.038 206.517C340.456 208.291 339.08 210 337.19 210H196.808C194.919 210 193.544 208.292 193.962 206.517C198.568 186.957 207.632 176.76 217.056 170.198C221.747 166.931 226.536 164.56 230.946 162.377L230.949 162.376L230.95 162.375C231.316 162.194 231.681 162.014 232.042 161.835C236.725 159.51 240.958 157.319 244.004 154.377C244.615 153.787 244.96 152.933 245.157 151.991C245.355 151.042 245.416 149.945 245.414 148.807C245.411 147.667 245.344 146.463 245.279 145.301L245.276 145.246C245.22 144.245 245.166 143.278 245.153 142.393C251.005 140.955 258.287 140 267 140C275.713 140 282.995 140.955 288.847 142.393C288.834 143.278 288.78 144.245 288.724 145.246L288.721 145.301C288.656 146.463 288.589 147.667 288.586 148.807C288.584 149.945 288.645 151.042 288.843 151.991C289.04 152.933 289.385 153.787 289.996 154.377C293.042 157.319 297.275 159.51 301.958 161.835C302.316 162.012 302.677 162.191 303.041 162.371L303.05 162.375Z" fill="#57C568" stroke="#242424" stroke-width="2"/>
<path d="M304 81C304 94.6085 299.807 106.891 293.074 115.75C286.342 124.608 277.114 130 267 130C256.886 130 247.658 124.608 240.926 115.75C234.193 106.891 230 94.6085 230 81C230 67.3914 234.193 55.1087 240.926 46.2497C247.658 37.3915 256.886 32 267 32C277.114 32 286.342 37.3915 293.074 46.2497C299.807 55.1087 304 67.3914 304 81Z" fill="white" stroke="#242424" stroke-width="2"/>
<path d="M255 105.5C255 105.5 259.696 109 267 109C274.304 109 279 105 279 105" stroke="#242424" stroke-width="2" stroke-linecap="round" stroke-linejoin="round"/>
<path d="M268 69C267.37 76.5304 265.786 91.9064 264.264 96.3148C264.125 96.7163 264.193 97.1783 264.527 97.4404C265.87 98.4934 267.35 98.5 270 98.5" stroke="#242424" stroke-width="2" stroke-linecap="round" stroke-linejoin="round"/>
<ellipse cx="249.5" cy="83" rx="3.5" ry="4" fill="#242424"/>
<ellipse cx="284.5" cy="83" rx="3.5" ry="4" fill="#242424"/>
<path d="M253.583 69.0345C246.834 69.0748 242.822 69.4028 240.307 69.7777C239.851 69.8456 239.579 69.3566 239.937 69.0663C241.778 67.5758 244.833 66.4444 246.5 66.1212C248.685 65.6974 251.252 66.3849 253.868 68.1836C254.256 68.4508 254.055 69.0317 253.583 69.0345Z" fill="#242424"/>
<path d="M280.417 69.0345C287.166 69.0748 291.178 69.4028 293.693 69.7777C294.149 69.8456 294.421 69.3566 294.063 69.0663C292.222 67.5758 289.167 66.4444 287.5 66.1212C285.315 65.6974 282.748 66.3849 280.132 68.1836C279.744 68.4508 279.945 69.0317 280.417 69.0345Z" fill="#242424"/>
<path d="M250.5 49.5001C241.3 70.3001 231.667 72.8334 228 71.5001L230 52.0001C230 52.0001 239 28.5001 267 29.0001C295 29.5001 311.5 66.5001 311.5 66.5001C309.667 80.8334 305.4 106.1 303 92.5001C300.6 78.9001 281.333 61.1667 272 54.0001C273.5 58.6667 279.2 70.3001 290 79.5001C280.5 77.5001 264.5 68.0001 250.5 49.5001Z" fill="#242424"/>
<path fill-rule="evenodd" clip-rule="evenodd" d="M229.005 79.0645C229.066 76.0234 231.724 74 234.544 74H255.366C257.774 74 260.036 75.4832 260.706 77.7344C260.962 77.6666 261.263 77.5938 261.606 77.5215C262.856 77.2583 264.676 77 267 77C269.324 77 271.144 77.2583 272.394 77.5215C272.737 77.5938 273.038 77.6666 273.294 77.7344C273.964 75.4832 276.226 74 278.634 74H299.456C302.276 74 304.934 76.0234 304.995 79.0645C305.066 82.6288 304.414 86.8416 302.145 90.1938C299.834 93.6084 295.931 96 289.817 96C283.837 96 279.784 93.7149 277.166 90.4557C274.616 87.2824 273.49 83.2694 273.134 79.766C272.859 79.6848 272.474 79.5821 271.981 79.4785C270.856 79.2417 269.176 79 267 79C264.824 79 263.144 79.2417 262.019 79.4785C261.526 79.5821 261.141 79.6848 260.866 79.766C260.51 83.2694 259.384 87.2824 256.834 90.4557C254.216 93.7149 250.163 96 244.183 96C238.069 96 234.166 93.6084 231.855 90.1938C229.586 86.8416 228.934 82.6288 229.005 79.0645ZM234.544 76C232.585 76 231.039 77.3666 231.005 79.1043C230.938 82.4495 231.563 86.1945 233.511 89.0727C235.417 91.8885 238.671 94 244.183 94C249.582 94 253.052 91.9701 255.275 89.203C257.532 86.394 258.572 82.7369 258.89 79.4289C259.067 77.5799 257.48 76 255.366 76H234.544ZM299.456 76C301.415 76 302.961 77.3666 302.995 79.1043C303.062 82.4495 302.437 86.1945 300.489 89.0727C298.583 91.8885 295.329 94 289.817 94C284.418 94 280.948 91.9701 278.725 89.203C276.468 86.394 275.428 82.7369 275.11 79.4289C274.933 77.5799 276.52 76 278.634 76H299.456Z" fill="#57C568"/>
</g>
<path d="M28.63 62.674C26.3509 62.5324 24.8307 60.3173 25.4514 58.1198C25.5218 57.8706 25.5997 57.6257 25.6859 57.3912C26.3537 55.5741 27.3964 54.5438 28.7555 55.1432C30.5242 55.9234 29.0961 58.4144 29.0961 58.4144C29.0961 58.4144 31.9781 57.0673 33.1286 59.074C33.9915 60.579 32.7289 62.2533 30.1213 62.6343C29.6557 62.7004 29.1449 62.706 28.63 62.674Z" fill="#F6F6F6"/>
<path d="M20.7414 62.1412C22.514 62.1008 23.7586 63.9138 23.1471 65.578C22.714 66.7564 22.0378 67.4245 21.1565 67.0358C20.0095 66.5299 20.9356 64.9145 20.9356 64.9145C20.9356 64.9145 19.0667 65.7881 18.3206 64.4867C17.761 63.5108 18.5798 62.425 20.2708 62.178C20.4215 62.1566 20.5795 62.1449 20.7414 62.1412Z" fill="#F6F6F6"/>
<path d="M24.6015 58.1593C24.653 60.4165 22.3441 62.0016 20.2248 61.2228C18.7241 60.6713 17.8732 59.8102 18.3683 58.6878C19.0126 57.2271 21.0698 58.4065 21.0698 58.4065C21.0698 58.4065 19.9573 56.0264 21.6145 55.0763C22.8574 54.3637 24.2401 55.4064 24.5547 57.5599C24.582 57.7518 24.5968 57.953 24.6015 58.1593Z" fill="#F6F6F6"/>
<path d="M24.0392 66.5431C23.9877 64.2859 26.2966 62.7008 28.4159 63.4796C29.9166 64.0311 30.7674 64.8922 30.2724 66.0146C29.6281 67.4753 27.5708 66.2959 27.5708 66.2959C27.5708 66.2959 28.6834 68.676 27.0261 69.6261C25.7832 70.3387 24.4005 69.296 24.0859 67.1425C24.0587 66.9506 24.0439 66.7494 24.0392 66.5431Z" fill="#F6F6F6"/>
<path d="M89.8777 4.08401C87.7292 4.85753 85.4012 3.88259 84.4263 1.81768C83.2723 -0.626565 81.8519 -4.01539 81.1518 -7.15982C79.9336 -12.6314 80.8606 -16.7734 85.1094 -17.4408C90.639 -18.3094 91.0601 -10.0061 91.0601 -10.0061C91.0601 -10.0061 95.9711 -17.7991 101.915 -14.7123C106.373 -12.3973 105.919 -6.34249 100.163 -1.3324C97.3396 1.10629 92.9772 2.96809 89.8777 4.08401Z" fill="#F6F6F6"/>
<path d="M80.8472 9.95275C82.9656 9.10019 85.3131 10.0849 86.22 12.1805C86.8228 13.5734 87.4362 15.2117 87.7806 16.7589C88.5706 20.3071 87.9694 22.9931 85.2142 23.4259C81.6283 23.9892 81.3553 18.6046 81.3553 18.6046C81.3553 18.6046 78.1705 23.6583 74.316 21.6566C71.4251 20.1553 71.7198 16.2288 75.452 12.9799C76.9209 11.7112 79.032 10.6833 80.8472 9.95275Z" fill="#F6F6F6"/>
<path d="M82.8976 2.88559C83.701 5.02309 82.7225 7.3563 80.6458 8.30576C78.6954 9.19746 76.188 10.2034 73.8449 10.7251C69.3262 11.7311 65.9056 10.9655 65.3545 7.45673C64.6371 2.89011 71.4943 2.54237 71.4943 2.54237C71.4943 2.54237 65.0586 -1.51335 67.6077 -6.42207C69.5196 -10.1036 74.5199 -9.72839 78.6575 -4.97535C80.5103 -2.83011 81.9599 0.390784 82.8976 2.88559Z" fill="#F6F6F6"/>
<path d="M88.2782 11.2359C87.4748 9.09837 88.4532 6.76515 90.53 5.8157C92.4804 4.924 94.9878 3.91805 97.3309 3.39639C101.85 2.39036 105.27 3.15595 105.821 6.66473C106.539 11.2314 99.6814 11.5791 99.6814 11.5791C99.6814 11.5791 106.117 15.6348 103.568 20.5435C101.656 24.2251 96.6559 23.8499 92.5183 19.0968C90.6655 16.9516 89.2159 13.7307 88.2782 11.2359Z" fill="#F6F6F6"/>
<path d="M94.8777 76.084C92.7292 76.8575 90.4012 75.8826 89.4263 73.8177C88.2723 71.3734 86.8519 67.9846 86.1518 64.8402C84.9336 59.3686 85.8606 55.2266 90.1094 54.5592C95.639 53.6906 96.0601 61.9939 96.0601 61.9939C96.0601 61.9939 100.971 54.2009 106.915 57.2877C111.373 59.6027 110.919 65.6575 105.163 70.6676C102.34 73.1063 97.9772 74.9681 94.8777 76.084Z" fill="#F6F6F6"/>
<path d="M85.8472 81.9528C87.9656 81.1002 90.3131 82.0849 91.22 84.1805C91.8228 85.5734 92.4362 87.2117 92.7806 88.7589C93.5706 92.3071 92.9694 94.9931 90.2142 95.4259C86.6283 95.9892 86.3553 90.6046 86.3553 90.6046C86.3553 90.6046 83.1705 95.6583 79.316 93.6566C76.4251 92.1553 76.7198 88.2288 80.452 84.9799C81.9209 83.7112 84.032 82.6833 85.8472 81.9528Z" fill="#F6F6F6"/>
<path d="M87.8976 74.8856C88.701 77.0231 87.7225 79.3563 85.6458 80.3058C83.6954 81.1975 81.188 82.2034 78.8449 82.7251C74.3262 83.7311 70.9056 82.9655 70.3545 79.4567C69.6371 74.8901 76.4943 74.5424 76.4943 74.5424C76.4943 74.5424 70.0586 70.4866 72.6077 65.5779C74.5196 61.8964 79.5199 62.2716 83.6575 67.0247C85.5103 69.1699 86.9599 72.3908 87.8976 74.8856Z" fill="#F6F6F6"/>
<path d="M93.2782 83.2359C92.4748 81.0984 93.4532 78.7652 95.53 77.8157C97.4804 76.924 99.9878 75.918 102.331 75.3964C106.85 74.3904 110.27 75.156 110.821 78.6647C111.539 83.2314 104.681 83.5791 104.681 83.5791C104.681 83.5791 111.117 87.6348 108.568 92.5435C106.656 96.2251 101.656 95.8499 97.5183 91.0968C95.6655 88.9516 94.2159 85.7307 93.2782 83.2359Z" fill="#F6F6F6"/>
</g>
<defs>
<clipPath id="clip0_224_7069">
<rect width="366" height="200" rx="20" fill="white"/>
</clipPath>
<clipPath id="clip1_224_7069">
<rect width="150" height="189" fill="white" transform="translate(192 22)"/>
</clipPath>
</defs>
</svg>
