<svg width="680" height="384" viewBox="0 0 680 384" fill="none" xmlns="http://www.w3.org/2000/svg">
<g clip-path="url(#clip0_35_135)">
<path d="M-14.9943 147.185C-14.9943 147.185 -25.8139 110.925 -25.7088 81.2471C-25.6097 53.2523 -16.6078 33.9591 4.63234 35.0588C32.276 36.4901 25.2341 77.5073 25.2341 77.5073C25.2341 77.5073 57.4589 44.4586 82.7795 65.6482C101.77 81.5405 92.9594 110.669 59.6998 129.248C32.102 144.526 -14.9943 147.185 -14.9943 147.185Z" fill="url(#paint0_linear_35_135)"/>
<path fill-rule="evenodd" clip-rule="evenodd" d="M20.8743 109.135C23.0495 109.639 25.3798 107.696 26.0792 104.796C26.7786 101.896 25.5823 99.1372 23.4072 98.6335C21.232 98.1298 18.9018 100.072 18.2023 102.972C17.5029 105.872 18.6992 108.631 20.8743 109.135ZM51.862 110.767C51.1626 113.667 48.8323 115.61 46.6572 115.106C44.482 114.602 43.2857 111.843 43.9852 108.943C44.6846 106.043 47.0149 104.101 49.19 104.604C51.3652 105.108 52.5615 107.867 51.862 110.767ZM39.5367 113.819C40.3635 114.264 40.6663 115.307 40.2132 116.149C40.1953 116.182 40.1818 116.205 40.1609 116.241C40.1237 116.305 40.1028 116.338 40.0617 116.402C39.9796 116.529 39.8639 116.696 39.7125 116.887C39.4116 117.266 38.9572 117.753 38.33 118.202C37.0304 119.134 35.0869 119.825 32.5256 119.231C29.9966 118.646 28.5649 117.249 27.806 115.894C27.4396 115.24 27.2455 114.626 27.1419 114.167C27.0898 113.937 27.0596 113.741 27.0421 113.594C27.0333 113.521 27.024 113.41 27.024 113.41C27.024 113.41 27.0187 113.328 27.0178 113.303C26.984 112.352 27.7204 111.543 28.6626 111.494C29.596 111.446 30.3812 112.164 30.4287 113.101C30.4291 113.106 30.4301 113.117 30.4319 113.132C30.4369 113.174 30.448 113.251 30.4711 113.353C30.5178 113.559 30.6092 113.851 30.7838 114.163C31.1067 114.739 31.7786 115.51 33.3361 115.871C34.8613 116.224 35.8105 115.811 36.3819 115.401C36.6902 115.18 36.9159 114.938 37.0613 114.755C37.1331 114.665 37.182 114.593 37.2088 114.551C37.2202 114.534 37.2273 114.522 37.2302 114.517C37.689 113.691 38.7166 113.378 39.5367 113.819Z" fill="url(#paint1_linear_35_135)"/>
</g>
<defs>
<linearGradient id="paint0_linear_35_135" x1="51.0826" y1="46.7704" x2="-8.91738" y2="150.693" gradientUnits="userSpaceOnUse">
<stop stop-color="#FF9DB8"/>
<stop offset="1" stop-color="#F36B91"/>
</linearGradient>
<linearGradient id="paint1_linear_35_135" x1="23.4072" y1="98.6335" x2="19.3108" y2="116.322" gradientUnits="userSpaceOnUse">
<stop stop-color="white"/>
<stop offset="1" stop-color="white" stop-opacity="0.76"/>
</linearGradient>
<clipPath id="clip0_35_135">
<rect width="680" height="384" rx="24" fill="white"/>
</clipPath>
</defs>
</svg>
