<svg width="594" height="400" viewBox="0 0 594 400" fill="none" xmlns="http://www.w3.org/2000/svg">
<g opacity="0.44" filter="url(#filter0_f_35_160)">
<path d="M307.63 52.6736C305.351 52.532 303.831 50.3169 304.451 48.1194C304.522 47.8702 304.6 47.6254 304.686 47.3909C305.354 45.5737 306.396 44.5434 307.755 45.1429C309.524 45.923 308.096 48.4141 308.096 48.4141C308.096 48.4141 310.978 47.067 312.129 49.0737C312.992 50.5787 311.729 52.253 309.121 52.6339C308.656 52.7001 308.145 52.7056 307.63 52.6736Z" fill="#57C568"/>
<path d="M299.741 52.1408C301.514 52.1003 302.759 53.9134 302.147 55.5775C301.714 56.7559 301.038 57.424 300.156 57.0353C299.009 56.5294 299.936 54.914 299.936 54.914C299.936 54.914 298.067 55.7876 297.321 54.4862C296.761 53.5103 297.58 52.4245 299.271 52.1775C299.421 52.1561 299.579 52.1445 299.741 52.1408Z" fill="#57C568"/>
<path d="M303.601 48.1589C303.653 50.4162 301.344 52.0012 299.225 51.2224C297.724 50.6709 296.873 49.8098 297.368 48.6874C298.013 47.2267 300.07 48.4061 300.07 48.4061C300.07 48.4061 298.957 46.0261 300.614 45.0759C301.857 44.3633 303.24 45.406 303.555 47.5595C303.582 47.7514 303.597 47.9526 303.601 48.1589Z" fill="#57C568"/>
<path d="M303.039 56.5428C302.988 54.2855 305.297 52.7004 307.416 53.4792C308.917 54.0307 309.767 54.8919 309.272 56.0142C308.628 57.4749 306.571 56.2955 306.571 56.2955C306.571 56.2955 307.683 58.6756 306.026 59.6258C304.783 60.3384 303.401 59.2957 303.086 57.1421C303.059 56.9502 303.044 56.749 303.039 56.5428Z" fill="#57C568"/>
</g>
<g opacity="0.44" filter="url(#filter1_f_35_160)">
<path d="M535.587 235.673C533.308 235.532 531.788 233.317 532.408 231.119C532.479 230.87 532.557 230.625 532.643 230.39C533.311 228.573 534.353 227.543 535.713 228.142C537.481 228.923 536.053 231.414 536.053 231.414C536.053 231.414 538.935 230.067 540.086 232.073C540.949 233.578 539.686 235.253 537.078 235.634C536.613 235.7 536.102 235.705 535.587 235.673Z" fill="#57C568"/>
<path d="M527.698 235.14C529.471 235.1 530.716 236.913 530.104 238.577C529.671 239.756 528.995 240.424 528.114 240.035C526.967 239.529 527.893 237.914 527.893 237.914C527.893 237.914 526.024 238.787 525.278 237.486C524.718 236.51 525.537 235.424 527.228 235.177C527.379 235.156 527.537 235.144 527.698 235.14Z" fill="#57C568"/>
<path d="M531.559 231.159C531.61 233.416 529.301 235.001 527.182 234.222C525.681 233.671 524.83 232.809 525.325 231.687C525.97 230.226 528.027 231.406 528.027 231.406C528.027 231.406 526.914 229.026 528.572 228.076C529.814 227.363 531.197 228.406 531.512 230.559C531.539 230.751 531.554 230.952 531.559 231.159Z" fill="#57C568"/>
<path d="M530.996 239.542C530.945 237.285 533.254 235.7 535.373 236.479C536.874 237.03 537.724 237.892 537.229 239.014C536.585 240.475 534.528 239.295 534.528 239.295C534.528 239.295 535.64 241.675 533.983 242.625C532.74 243.338 531.358 242.295 531.043 240.142C531.016 239.95 531.001 239.749 530.996 239.542Z" fill="#57C568"/>
</g>
<g opacity="0.44" filter="url(#filter2_f_35_160)">
<path d="M539.587 361.673C537.308 361.532 535.788 359.317 536.408 357.119C536.479 356.87 536.557 356.625 536.643 356.39C537.311 354.573 538.353 353.543 539.713 354.142C541.481 354.923 540.053 357.414 540.053 357.414C540.053 357.414 542.935 356.067 544.086 358.073C544.949 359.578 543.686 361.253 541.078 361.634C540.613 361.7 540.102 361.705 539.587 361.673Z" fill="#57C568"/>
<path d="M531.698 361.14C533.471 361.1 534.716 362.913 534.104 364.577C533.671 365.756 532.995 366.424 532.114 366.035C530.967 365.529 531.893 363.914 531.893 363.914C531.893 363.914 530.024 364.787 529.278 363.486C528.718 362.51 529.537 361.424 531.228 361.177C531.379 361.156 531.537 361.144 531.698 361.14Z" fill="#57C568"/>
<path d="M535.559 357.159C535.61 359.416 533.301 361.001 531.182 360.222C529.681 359.671 528.83 358.809 529.325 357.687C529.97 356.226 532.027 357.406 532.027 357.406C532.027 357.406 530.914 355.026 532.572 354.076C533.814 353.363 535.197 354.406 535.512 356.559C535.539 356.751 535.554 356.952 535.559 357.159Z" fill="#57C568"/>
<path d="M534.996 365.542C534.945 363.285 537.254 361.7 539.373 362.479C540.874 363.03 541.724 363.892 541.229 365.014C540.585 366.475 538.528 365.295 538.528 365.295C538.528 365.295 539.64 367.675 537.983 368.625C536.74 369.338 535.358 368.295 535.043 366.142C535.016 365.95 535.001 365.749 534.996 365.542Z" fill="#57C568"/>
</g>
<g opacity="0.44" filter="url(#filter3_f_35_160)">
<path d="M18.63 161.674C16.3509 161.532 14.8307 159.317 15.4514 157.119C15.5218 156.87 15.5997 156.625 15.6859 156.391C16.3537 154.574 17.3964 153.543 18.7555 154.143C20.5242 154.923 19.0961 157.414 19.0961 157.414C19.0961 157.414 21.9781 156.067 23.1286 158.074C23.9915 159.579 22.7289 161.253 20.1213 161.634C19.6557 161.7 19.1449 161.706 18.63 161.674Z" fill="#57C568"/>
<path d="M10.7414 161.141C12.514 161.1 13.7586 162.913 13.1471 164.578C12.714 165.756 12.0378 166.424 11.1565 166.035C10.0095 165.529 10.9356 163.914 10.9356 163.914C10.9356 163.914 9.06667 164.788 8.32057 163.486C7.76099 162.51 8.57977 161.425 10.2708 161.177C10.4215 161.156 10.5795 161.144 10.7414 161.141Z" fill="#57C568"/>
<path d="M14.6015 157.159C14.653 159.416 12.3441 161.001 10.2248 160.222C8.72407 159.671 7.87322 158.81 8.36827 157.687C9.01257 156.227 11.0698 157.406 11.0698 157.406C11.0698 157.406 9.95727 155.026 11.6145 154.076C12.8574 153.363 14.2401 154.406 14.5547 156.56C14.582 156.751 14.5968 156.953 14.6015 157.159Z" fill="#57C568"/>
<path d="M14.0392 165.543C13.9877 163.285 16.2966 161.7 18.4159 162.479C19.9166 163.031 20.7674 163.892 20.2724 165.014C19.6281 166.475 17.5708 165.296 17.5708 165.296C17.5708 165.296 18.6834 167.676 17.0261 168.626C15.7832 169.338 14.4005 168.296 14.0859 166.142C14.0587 165.95 14.0439 165.749 14.0392 165.543Z" fill="#57C568"/>
</g>
<g opacity="0.44" filter="url(#filter4_f_35_160)">
<path d="M45.63 299.673C43.3509 299.532 41.8307 297.317 42.4514 295.119C42.5218 294.87 42.5997 294.625 42.6859 294.391C43.3537 292.573 44.3964 291.543 45.7555 292.143C47.5242 292.923 46.0961 295.414 46.0961 295.414C46.0961 295.414 48.9781 294.067 50.1286 296.073C50.9915 297.578 49.7289 299.253 47.1213 299.634C46.6557 299.7 46.1449 299.705 45.63 299.673Z" fill="#57C568"/>
<path d="M37.7414 299.141C39.514 299.1 40.7586 300.913 40.1471 302.577C39.714 303.756 39.0378 304.424 38.1565 304.035C37.0095 303.529 37.9356 301.914 37.9356 301.914C37.9356 301.914 36.0667 302.787 35.3206 301.486C34.761 300.51 35.5798 299.424 37.2708 299.177C37.4215 299.156 37.5795 299.144 37.7414 299.141Z" fill="#57C568"/>
<path d="M41.6015 295.159C41.653 297.416 39.3441 299.001 37.2248 298.222C35.7241 297.671 34.8732 296.81 35.3683 295.687C36.0126 294.226 38.0698 295.406 38.0698 295.406C38.0698 295.406 36.9573 293.026 38.6145 292.076C39.8574 291.363 41.2401 292.406 41.5547 294.559C41.582 294.751 41.5968 294.952 41.6015 295.159Z" fill="#57C568"/>
<path d="M41.0392 303.543C40.9877 301.285 43.2966 299.7 45.4159 300.479C46.9166 301.03 47.7674 301.892 47.2724 303.014C46.6281 304.475 44.5708 303.295 44.5708 303.295C44.5708 303.295 45.6834 305.675 44.0261 306.626C42.7832 307.338 41.4005 306.295 41.0859 304.142C41.0587 303.95 41.0439 303.749 41.0392 303.543Z" fill="#57C568"/>
</g>
<g opacity="0.44" filter="url(#filter5_f_35_160)">
<path d="M341.63 347.673C339.351 347.532 337.831 345.317 338.451 343.119C338.522 342.87 338.6 342.625 338.686 342.391C339.354 340.573 340.396 339.543 341.755 340.143C343.524 340.923 342.096 343.414 342.096 343.414C342.096 343.414 344.978 342.067 346.129 344.073C346.992 345.578 345.729 347.253 343.121 347.634C342.656 347.7 342.145 347.705 341.63 347.673Z" fill="#57C568"/>
<path d="M333.741 347.141C335.514 347.1 336.759 348.913 336.147 350.577C335.714 351.756 335.038 352.424 334.156 352.035C333.009 351.529 333.936 349.914 333.936 349.914C333.936 349.914 332.067 350.787 331.321 349.486C330.761 348.51 331.58 347.424 333.271 347.177C333.421 347.156 333.579 347.144 333.741 347.141Z" fill="#57C568"/>
<path d="M337.601 343.159C337.653 345.416 335.344 347.001 333.225 346.222C331.724 345.671 330.873 344.81 331.368 343.687C332.013 342.226 334.07 343.406 334.07 343.406C334.07 343.406 332.957 341.026 334.614 340.076C335.857 339.363 337.24 340.406 337.555 342.559C337.582 342.751 337.597 342.952 337.601 343.159Z" fill="#57C568"/>
<path d="M337.039 351.543C336.988 349.285 339.297 347.7 341.416 348.479C342.917 349.03 343.767 349.892 343.272 351.014C342.628 352.475 340.571 351.295 340.571 351.295C340.571 351.295 341.683 353.675 340.026 354.626C338.783 355.338 337.401 354.295 337.086 352.142C337.059 351.95 337.044 351.749 337.039 351.543Z" fill="#57C568"/>
</g>
<path d="M32.4376 45.8922C33.8187 47.7107 33.5329 50.2294 31.7983 51.7145C30.3081 52.9903 28.4051 54.4667 26.5208 55.5042C22.729 57.5923 19.4581 57.8022 18.0432 54.7975C16.2017 50.887 22.2651 48.7765 22.2651 48.7765C22.2651 48.7765 15.4251 46.8242 16.4257 41.7499C17.1761 37.9442 21.7625 36.9696 26.7226 40.1504C28.8738 41.5418 30.9504 43.9338 32.4376 45.8922Z" fill="#57C568"/>
<path d="M39.83 52.7093C38.3551 50.966 38.6461 48.4078 40.4479 47.005C41.1876 46.4291 42.0038 45.8574 42.8145 45.4109C45.2735 44.0569 47.3946 43.9207 48.3122 45.8692C49.5063 48.4052 45.5743 49.7738 45.5743 49.7738C45.5743 49.7738 50.01 51.0398 49.3611 54.3304C48.8744 56.7984 45.9003 57.4304 42.6837 55.3676C41.663 54.7075 40.6682 53.6999 39.83 52.7093Z" fill="#57C568"/>
<path d="M32.8896 52.5745C34.6811 51.1586 37.2127 51.4455 38.6681 53.2051C39.6096 54.3435 40.6216 55.7008 41.3627 57.0465C43.087 60.1779 43.2604 62.8792 40.779 64.0477C37.5495 65.5685 35.8066 60.5611 35.8066 60.5611C35.8066 60.5611 34.1943 66.2098 30.0038 65.3835C26.8608 64.7637 26.0559 60.9761 28.6829 56.8799C29.7078 55.2952 31.3903 53.7595 32.8896 52.5745Z" fill="#57C568"/>
<path d="M39.3135 45.6961C37.522 47.112 34.9904 46.8251 33.5351 45.0655C32.5935 43.9271 31.5815 42.5698 30.8405 41.2242C29.1161 38.0927 28.9427 35.3915 31.4241 34.223C34.6536 32.7022 36.3965 37.7096 36.3965 37.7096C36.3965 37.7096 38.0088 32.0608 42.1994 32.8872C45.3423 33.5069 46.1472 37.2945 43.5203 41.3908C42.4953 42.9755 40.8128 44.5111 39.3135 45.6961Z" fill="#57C568"/>
<path d="M499.876 0.206642C500.238 -2.04796 502.259 -3.57848 504.53 -3.34551C506.459 -3.14774 508.804 -2.7919 510.826 -2.15277C514.917 -0.859202 517.305 1.34475 516.116 4.41491C514.568 8.41068 508.907 5.50217 508.907 5.50217C508.907 5.50217 512.184 11.7463 507.858 14.498C504.613 16.5619 500.777 13.9367 499.668 8.20166C499.198 5.71772 499.49 2.60873 499.876 0.206642Z" fill="#57C568"/>
<path d="M504.403 -4.71361C502.142 -5.0317 500.603 -7.06261 500.875 -9.32986C501.048 -10.776 501.33 -12.4164 501.785 -13.8574C502.854 -17.2364 504.674 -19.208 507.209 -18.2261C510.509 -16.9482 508.107 -12.2731 508.107 -12.2731C508.107 -12.2731 513.264 -14.9787 515.536 -11.4061C517.241 -8.72662 515.073 -5.55891 510.336 -4.64313C508.509 -4.29714 506.272 -4.4507 504.403 -4.71361Z" fill="#57C568"/>
<path d="M495.003 -4.63136C497.265 -4.31327 498.803 -2.28236 498.531 -0.0151151C498.358 1.43104 498.077 3.07142 497.621 4.51244C496.553 7.89139 494.733 9.86299 492.197 8.88113C488.897 7.60326 491.299 2.92817 491.299 2.92817C491.299 2.92817 486.143 5.63377 483.87 2.06113C482.166 -0.618352 484.334 -3.78606 489.07 -4.70184C490.897 -5.04783 493.134 -4.89428 495.003 -4.63136Z" fill="#57C568"/>
<path d="M179.028 391.506C176.896 392.325 174.559 391.345 173.623 389.262C172.841 387.52 171.991 385.354 171.539 383.323C170.617 379.18 171.318 376.045 174.535 375.539C178.721 374.882 179.04 381.168 179.04 381.168C179.04 381.168 182.758 375.268 187.257 377.605C190.632 379.358 190.288 383.941 185.931 387.734C184.05 389.359 181.267 390.645 179.028 391.506Z" fill="#57C568"/>
<path d="M170.441 396.646C172.525 395.712 174.902 396.71 175.736 398.835C176.064 399.67 176.366 400.569 176.558 401.43C177.156 404.116 176.701 406.15 174.615 406.477C171.9 406.904 171.693 402.827 171.693 402.827C171.693 402.827 169.283 406.653 166.364 405.138C164.176 404.001 164.399 401.029 167.225 398.569C168.108 397.806 169.299 397.158 170.441 396.646Z" fill="#57C568"/>
<path d="M172.515 390.049C173.377 392.163 172.391 394.513 170.292 395.413C168.977 395.976 167.45 396.541 166.006 396.862C162.585 397.624 159.996 397.044 159.578 394.388C159.035 390.931 164.226 390.668 164.226 390.668C164.226 390.668 159.354 387.597 161.284 383.881C162.731 381.094 166.517 381.378 169.649 384.976C170.842 386.358 171.815 388.328 172.515 390.049Z" fill="#57C568"/>
<path d="M177.278 398.127C176.416 396.013 177.402 393.663 179.501 392.763C180.816 392.2 182.343 391.635 183.787 391.314C187.208 390.552 189.797 391.132 190.215 393.788C190.758 397.245 185.567 397.508 185.567 397.508C185.567 397.508 190.439 400.579 188.509 404.295C187.062 407.082 183.276 406.798 180.144 403.2C178.951 401.818 177.978 399.848 177.278 398.127Z" fill="#57C568"/>
<g opacity="0.72" filter="url(#filter6_f_35_160)">
<path d="M224.548 73.7939C222.265 73.7289 220.547 71.8178 220.683 69.5384C220.743 68.5359 220.861 67.4652 221.08 66.4926C221.719 63.6658 223.067 61.9341 225.2 62.5601C227.977 63.3748 226.341 67.3494 226.341 67.3494C226.341 67.3494 230.357 64.7905 232.454 67.5457C234.027 69.6121 232.478 72.3423 228.682 73.4139C227.435 73.7606 225.921 73.8329 224.548 73.7939Z" fill="#57C568"/>
<path d="M215.287 74.4313C217.563 74.2507 219.369 76.2628 219.016 78.5188C218.983 78.7291 218.944 78.9364 218.899 79.1373C218.485 80.9704 217.611 82.0934 216.227 81.6875C214.427 81.1591 215.488 78.5817 215.488 78.5817C215.488 78.5817 212.883 80.2411 211.523 78.4544C210.503 77.1143 211.508 75.3438 213.97 74.6489C214.376 74.5359 214.826 74.4679 215.287 74.4313Z" fill="#57C568"/>
<path d="M219.753 69.701C219.771 71.9845 217.832 73.7265 215.558 73.5182C214.936 73.4613 214.305 73.3734 213.716 73.2405C211.382 72.7132 209.952 71.6002 210.469 69.8382C211.142 67.545 214.424 68.8963 214.424 68.8963C214.424 68.8963 212.311 65.5795 214.586 63.8475C216.293 62.5486 218.547 63.8278 219.432 66.9632C219.663 67.7917 219.746 68.7626 219.753 69.701Z" fill="#57C568"/>
<path d="M220.278 78.5391C220.26 76.2556 222.2 74.5136 224.474 74.7219C225.095 74.7788 225.727 74.8667 226.315 74.9996C228.649 75.5269 230.079 76.6399 229.563 78.4019C228.89 80.6951 225.607 79.3438 225.607 79.3438C225.607 79.3438 227.721 82.6606 225.445 84.3926C223.739 85.6916 221.484 84.4123 220.599 81.2769C220.369 80.4484 220.285 79.4775 220.278 78.5391Z" fill="#57C568"/>
</g>
<g opacity="0.72" filter="url(#filter7_f_35_160)">
<path d="M307.299 310.761C306.818 312.993 304.624 314.333 302.408 313.782C301.434 313.54 300.403 313.228 299.487 312.834C296.824 311.689 295.368 310.048 296.374 308.064C297.683 305.484 301.291 307.819 301.291 307.819C301.291 307.819 299.51 303.403 302.603 301.845C304.922 300.677 307.323 302.699 307.682 306.628C307.794 307.917 307.589 309.418 307.299 310.761Z" fill="#57C568"/>
<path d="M306.233 319.983C306.472 317.712 308.781 316.305 310.934 317.065C311.135 317.135 311.332 317.211 311.521 317.293C313.247 318.035 314.191 319.1 313.539 320.386C312.69 322.059 310.35 320.545 310.35 320.545C310.35 320.545 311.505 323.409 309.5 324.419C307.996 325.177 306.439 323.865 306.206 321.318C306.17 320.897 306.185 320.442 306.233 319.983Z" fill="#57C568"/>
<path d="M302.398 314.726C304.646 315.127 306.004 317.352 305.383 319.55C305.214 320.15 305.012 320.755 304.773 321.309C303.828 323.508 302.472 324.71 300.834 323.879C298.703 322.798 300.632 319.819 300.632 319.819C300.632 319.819 296.984 321.289 295.698 318.735C294.733 316.82 296.403 314.837 299.648 314.541C300.504 314.466 301.474 314.562 302.398 314.726Z" fill="#57C568"/>
<path d="M311.184 315.827C308.936 315.427 307.578 313.202 308.199 311.004C308.368 310.404 308.57 309.799 308.809 309.245C309.754 307.046 311.11 305.844 312.748 306.674C314.879 307.755 312.95 310.735 312.95 310.735C312.95 310.735 316.598 309.264 317.884 311.818C318.849 313.734 317.179 315.716 313.934 316.013C313.078 316.087 312.108 315.992 311.184 315.827Z" fill="#57C568"/>
</g>
<g opacity="0.72" filter="url(#filter8_f_35_160)">
<path d="M459.246 311.951C461.489 311.523 463.578 313.02 463.936 315.275C464.093 316.267 464.208 317.338 464.203 318.335C464.187 321.233 463.244 323.214 461.025 323.062C458.138 322.864 458.881 318.63 458.881 318.63C458.881 318.63 455.509 321.993 452.869 319.754C450.888 318.074 451.813 315.075 455.291 313.211C456.434 312.605 457.896 312.208 459.246 311.951Z" fill="#57C568"/>
<path d="M468.151 309.336C465.967 310.002 463.771 308.426 463.63 306.146C463.617 305.934 463.61 305.723 463.611 305.517C463.621 303.638 464.233 302.353 465.672 302.452C467.544 302.581 467.062 305.326 467.062 305.326C467.062 305.326 469.249 303.145 470.961 304.598C472.246 305.687 471.646 307.632 469.391 308.84C469.018 309.038 468.593 309.201 468.151 309.336Z" fill="#57C568"/>
<path d="M464.808 314.916C464.3 312.69 465.819 310.572 468.085 310.286C468.704 310.208 469.34 310.158 469.943 310.161C472.336 310.174 473.972 310.953 473.846 312.785C473.682 315.169 470.186 314.556 470.186 314.556C470.186 314.556 472.963 317.34 471.114 319.521C469.727 321.157 467.25 320.393 465.711 317.521C465.308 316.762 465.017 315.831 464.808 314.916Z" fill="#57C568"/>
<path d="M462.395 306.398C462.903 308.624 461.384 310.743 459.118 311.029C458.499 311.107 457.864 311.157 457.26 311.154C454.867 311.141 453.231 310.361 453.357 308.53C453.521 306.145 457.017 306.759 457.017 306.759C457.017 306.759 454.24 303.974 456.089 301.793C457.476 300.158 459.953 300.922 461.492 303.794C461.895 304.553 462.186 305.483 462.395 306.398Z" fill="#57C568"/>
</g>
<g opacity="0.72" filter="url(#filter9_f_35_160)">
<path d="M38.8517 344.29C40.0664 346.224 39.4325 348.714 37.4623 349.869C36.5957 350.376 35.64 350.873 34.7093 351.231C32.0045 352.271 29.8159 352.113 29.1504 349.992C28.2842 347.231 32.4978 346.382 32.4978 346.382C32.4978 346.382 28.1382 344.465 29.263 341.191C30.1065 338.734 33.2372 338.505 36.2382 341.065C37.2195 341.909 38.1209 343.127 38.8517 344.29Z" fill="#57C568"/>
<path d="M44.5309 351.635C43.1155 349.843 43.7844 347.223 45.8561 346.263C46.0492 346.174 46.2431 346.091 46.4353 346.017C48.1893 345.342 49.6086 345.444 50.0402 346.82C50.6019 348.611 47.8694 349.161 47.8694 349.161C47.8694 349.161 50.6965 350.404 49.9672 352.528C49.4201 354.12 47.39 354.269 45.4438 352.609C45.1239 352.334 44.8171 351.997 44.5309 351.635Z" fill="#57C568"/>
<path d="M38.1154 350.551C40.0039 349.268 42.53 349.911 43.6207 351.917C43.9187 352.466 44.1967 353.04 44.4132 353.602C45.2725 355.836 45.1421 357.644 43.39 358.193C41.1097 358.909 40.4086 355.429 40.4086 355.429C40.4086 355.429 38.8259 359.029 36.1214 358.1C34.0931 357.404 33.9033 354.818 36.0179 352.34C36.5786 351.688 37.3392 351.079 38.1154 350.551Z" fill="#57C568"/>
<path d="M45.1698 345.203C43.2812 346.486 40.7552 345.842 39.6644 343.836C39.3664 343.288 39.0885 342.714 38.8719 342.151C38.0127 339.918 38.1431 338.11 39.8952 337.561C42.1754 336.845 42.8766 340.325 42.8766 340.325C42.8766 340.325 44.4592 336.725 47.1637 337.654C49.1921 338.35 49.3818 340.936 47.2672 343.414C46.7066 344.066 45.9459 344.675 45.1698 345.203Z" fill="#57C568"/>
</g>
<g opacity="0.72" filter="url(#filter10_f_35_160)">
<path d="M487.373 83.6343C487.335 81.3511 489.167 79.5492 491.45 79.5823C492.455 79.5968 493.529 79.6669 494.511 79.8427C497.364 80.3535 499.154 81.6222 498.625 83.7817C497.935 86.5922 493.891 85.1362 493.891 85.1362C493.891 85.1362 496.628 89.0334 493.97 91.2523C491.976 92.9164 489.179 91.4915 487.938 87.7468C487.536 86.5166 487.395 85.0078 487.373 83.6343Z" fill="#57C568"/>
<path d="M486.322 74.411C486.605 76.6769 484.676 78.5715 482.406 78.3199C482.195 78.2964 481.986 78.2671 481.783 78.2308C479.933 77.8995 478.772 77.0768 479.115 75.6764C479.562 73.8538 482.185 74.798 482.185 74.798C482.185 74.798 480.41 72.2707 482.134 70.8318C483.427 69.7526 485.241 70.6767 486.046 73.105C486.177 73.5061 486.265 73.9528 486.322 74.411Z" fill="#57C568"/>
<path d="M491.247 78.6609C488.967 78.7807 487.139 76.9217 487.245 74.6407C487.274 74.0175 487.334 73.3825 487.44 72.7889C487.862 70.433 488.91 68.9544 490.693 69.3917C493.014 69.9609 491.812 73.3006 491.812 73.3006C491.812 73.3006 495.03 71.0406 496.862 73.2359C498.237 74.8823 497.06 77.1922 493.968 78.2171C493.15 78.4844 492.184 78.6116 491.247 78.6609Z" fill="#57C568"/>
<path d="M482.441 79.5816C484.721 79.4617 486.548 81.3207 486.442 83.6018C486.413 84.2249 486.354 84.8599 486.248 85.4536C485.826 87.8094 484.778 89.288 482.995 88.8507C480.673 88.2816 481.876 84.9418 481.876 84.9418C481.876 84.9418 478.657 87.2019 476.825 85.0066C475.451 83.3601 476.627 81.0502 479.72 80.0254C480.537 79.758 481.503 79.6308 482.441 79.5816Z" fill="#57C568"/>
</g>
<g opacity="0.72" filter="url(#filter11_f_35_160)">
<path d="M579.644 275.609C578.116 273.913 578.313 271.351 580.056 269.876C580.823 269.227 581.679 268.574 582.535 268.061C585.021 266.572 587.204 266.353 588.224 268.329C589.551 270.9 585.545 272.459 585.545 272.459C585.545 272.459 590.169 273.6 589.622 277.019C589.212 279.583 586.168 280.346 582.772 278.339C581.66 277.676 580.563 276.63 579.644 275.609Z" fill="#57C568"/>
<path d="M572.793 269.347C574.495 270.87 574.285 273.566 572.409 274.867C572.234 274.988 572.057 275.103 571.881 275.209C570.268 276.175 568.852 276.317 568.191 275.036C567.331 273.368 569.928 272.357 569.928 272.357C569.928 272.357 566.93 271.618 567.284 269.4C567.55 267.737 569.525 267.242 571.727 268.545C572.089 268.761 572.449 269.039 572.793 269.347Z" fill="#57C568"/>
<path d="M579.296 269.315C577.656 270.904 575.057 270.703 573.638 268.913C573.251 268.424 572.878 267.907 572.569 267.389C571.339 265.336 571.157 263.533 572.789 262.691C574.913 261.595 576.201 264.903 576.201 264.903C576.201 264.903 577.142 261.085 579.966 261.536C582.084 261.874 582.714 264.389 581.056 267.193C580.615 267.932 579.971 268.662 579.296 269.315Z" fill="#57C568"/>
<path d="M573.266 275.794C574.907 274.206 577.506 274.407 578.924 276.196C579.312 276.685 579.684 277.203 579.994 277.72C581.224 279.774 581.405 281.577 579.773 282.419C577.649 283.514 576.362 280.206 576.362 280.206C576.362 280.206 575.42 284.025 572.596 283.574C570.479 283.235 569.848 280.721 571.506 277.916C571.947 277.178 572.592 276.447 573.266 275.794Z" fill="#57C568"/>
</g>
<defs>
<filter id="filter0_f_35_160" x="289.145" y="36.8531" width="31.2539" height="30.9954" filterUnits="userSpaceOnUse" color-interpolation-filters="sRGB">
<feFlood flood-opacity="0" result="BackgroundImageFix"/>
<feBlend mode="normal" in="SourceGraphic" in2="BackgroundImageFix" result="shape"/>
<feGaussianBlur stdDeviation="4" result="effect1_foregroundBlur_35_160"/>
</filter>
<filter id="filter1_f_35_160" x="517.102" y="219.853" width="31.2539" height="30.9954" filterUnits="userSpaceOnUse" color-interpolation-filters="sRGB">
<feFlood flood-opacity="0" result="BackgroundImageFix"/>
<feBlend mode="normal" in="SourceGraphic" in2="BackgroundImageFix" result="shape"/>
<feGaussianBlur stdDeviation="4" result="effect1_foregroundBlur_35_160"/>
</filter>
<filter id="filter2_f_35_160" x="521.102" y="345.853" width="31.2539" height="30.9954" filterUnits="userSpaceOnUse" color-interpolation-filters="sRGB">
<feFlood flood-opacity="0" result="BackgroundImageFix"/>
<feBlend mode="normal" in="SourceGraphic" in2="BackgroundImageFix" result="shape"/>
<feGaussianBlur stdDeviation="4" result="effect1_foregroundBlur_35_160"/>
</filter>
<filter id="filter3_f_35_160" x="0.144531" y="145.853" width="31.2539" height="30.9954" filterUnits="userSpaceOnUse" color-interpolation-filters="sRGB">
<feFlood flood-opacity="0" result="BackgroundImageFix"/>
<feBlend mode="normal" in="SourceGraphic" in2="BackgroundImageFix" result="shape"/>
<feGaussianBlur stdDeviation="4" result="effect1_foregroundBlur_35_160"/>
</filter>
<filter id="filter4_f_35_160" x="27.1445" y="283.853" width="31.2539" height="30.9954" filterUnits="userSpaceOnUse" color-interpolation-filters="sRGB">
<feFlood flood-opacity="0" result="BackgroundImageFix"/>
<feBlend mode="normal" in="SourceGraphic" in2="BackgroundImageFix" result="shape"/>
<feGaussianBlur stdDeviation="4" result="effect1_foregroundBlur_35_160"/>
</filter>
<filter id="filter5_f_35_160" x="323.145" y="331.853" width="31.2539" height="30.9954" filterUnits="userSpaceOnUse" color-interpolation-filters="sRGB">
<feFlood flood-opacity="0" result="BackgroundImageFix"/>
<feBlend mode="normal" in="SourceGraphic" in2="BackgroundImageFix" result="shape"/>
<feGaussianBlur stdDeviation="4" result="effect1_foregroundBlur_35_160"/>
</filter>
<filter id="filter6_f_35_160" x="206.363" y="58.4324" width="30.6992" height="30.4633" filterUnits="userSpaceOnUse" color-interpolation-filters="sRGB">
<feFlood flood-opacity="0" result="BackgroundImageFix"/>
<feBlend mode="normal" in="SourceGraphic" in2="BackgroundImageFix" result="shape"/>
<feGaussianBlur stdDeviation="2" result="effect1_foregroundBlur_35_160"/>
</filter>
<filter id="filter7_f_35_160" x="291.426" y="297.516" width="30.7305" height="31.1167" filterUnits="userSpaceOnUse" color-interpolation-filters="sRGB">
<feFlood flood-opacity="0" result="BackgroundImageFix"/>
<feBlend mode="normal" in="SourceGraphic" in2="BackgroundImageFix" result="shape"/>
<feGaussianBlur stdDeviation="2" result="effect1_foregroundBlur_35_160"/>
</filter>
<filter id="filter8_f_35_160" x="447.84" y="296.945" width="30.0117" height="30.125" filterUnits="userSpaceOnUse" color-interpolation-filters="sRGB">
<feFlood flood-opacity="0" result="BackgroundImageFix"/>
<feBlend mode="normal" in="SourceGraphic" in2="BackgroundImageFix" result="shape"/>
<feGaussianBlur stdDeviation="2" result="effect1_foregroundBlur_35_160"/>
</filter>
<filter id="filter9_f_35_160" x="25.0312" y="333.464" width="29.0859" height="28.8265" filterUnits="userSpaceOnUse" color-interpolation-filters="sRGB">
<feFlood flood-opacity="0" result="BackgroundImageFix"/>
<feBlend mode="normal" in="SourceGraphic" in2="BackgroundImageFix" result="shape"/>
<feGaussianBlur stdDeviation="2" result="effect1_foregroundBlur_35_160"/>
</filter>
<filter id="filter10_f_35_160" x="472.258" y="65.3152" width="30.4609" height="30.6252" filterUnits="userSpaceOnUse" color-interpolation-filters="sRGB">
<feFlood flood-opacity="0" result="BackgroundImageFix"/>
<feBlend mode="normal" in="SourceGraphic" in2="BackgroundImageFix" result="shape"/>
<feGaussianBlur stdDeviation="2" result="effect1_foregroundBlur_35_160"/>
</filter>
<filter id="filter11_f_35_160" x="563.254" y="257.499" width="30.4141" height="30.1119" filterUnits="userSpaceOnUse" color-interpolation-filters="sRGB">
<feFlood flood-opacity="0" result="BackgroundImageFix"/>
<feBlend mode="normal" in="SourceGraphic" in2="BackgroundImageFix" result="shape"/>
<feGaussianBlur stdDeviation="2" result="effect1_foregroundBlur_35_160"/>
</filter>
</defs>
</svg>
