<svg width="32" height="32" viewBox="0 0 32 32" fill="none" xmlns="http://www.w3.org/2000/svg">
<path fill-rule="evenodd" clip-rule="evenodd" d="M15.6679 6C15.5465 6 15.2479 6.03333 15.0892 6.35067L12.6545 11.2187C12.2692 11.988 11.5265 12.5227 10.6679 12.6453L5.21719 13.4307C4.85719 13.4827 4.73452 13.7493 4.69719 13.8613C4.66386 13.9693 4.61052 14.244 4.85852 14.4813L8.79986 18.268C9.42786 18.872 9.71319 19.7427 9.56386 20.5947L8.63586 25.9413C8.57852 26.276 8.78786 26.4707 8.88119 26.5373C8.97986 26.612 9.24386 26.76 9.57052 26.5893L14.4439 24.0627C15.2119 23.6667 16.1265 23.6667 16.8919 24.0627L21.7639 26.588C22.0919 26.7573 22.3559 26.6093 22.4559 26.5373C22.5492 26.4707 22.7585 26.276 22.7012 25.9413L21.7705 20.5947C21.6212 19.7427 21.9065 18.872 22.5345 18.268L26.4759 14.4813C26.7252 14.244 26.6719 13.968 26.6372 13.8613C26.6012 13.7493 26.4785 13.4827 26.1185 13.4307L20.6679 12.6453C19.8105 12.5227 19.0679 11.988 18.6825 11.2173L16.2452 6.35067C16.0879 6.03333 15.7892 6 15.6679 6ZM9.26386 28.6667C8.71319 28.6667 8.16652 28.4933 7.69852 28.152C6.89052 27.56 6.49452 26.5827 6.66652 25.5987L7.59452 20.252C7.62919 20.0533 7.56119 19.852 7.41452 19.7107L3.47319 15.924C2.74786 15.2293 2.48786 14.2027 2.79452 13.2493C3.10386 12.2853 3.92252 11.596 4.93186 11.452L10.3825 10.6667C10.5932 10.6373 10.7745 10.508 10.8652 10.324L13.3012 5.45467C13.7505 4.55733 14.6572 4 15.6679 4C16.6785 4 17.5852 4.55733 18.0345 5.45467L20.4719 10.3227C20.5639 10.508 20.7439 10.6373 20.9532 10.6667L26.4039 11.452C27.4132 11.596 28.2319 12.2853 28.5412 13.2493C28.8479 14.2027 28.5865 15.2293 27.8612 15.924L23.9199 19.7107C23.7732 19.852 23.7065 20.0533 23.7412 20.2507L24.6705 25.5987C24.8412 26.584 24.4452 27.5613 23.6359 28.152C22.8159 28.7533 21.7479 28.8347 20.8425 28.3627L15.9719 25.8387C15.7812 25.74 15.5532 25.74 15.3625 25.8387L10.4919 28.364C10.1025 28.5667 9.68252 28.6667 9.26386 28.6667Z" fill="#57C568"/>
</svg>
