<svg width="40" height="40" viewBox="0 0 40 40" fill="none" xmlns="http://www.w3.org/2000/svg">
<path d="M25.1204 3.3335H14.8937C5.5537 3.3335 3.33203 5.55516 3.33203 14.8785V25.1052C3.33203 34.4435 5.53703 36.6668 14.877 36.6668H25.1037C34.442 36.6668 36.6654 34.4618 36.6654 25.1218V14.8952C36.6654 5.55516 34.4604 3.3335 25.1204 3.3335Z" fill="url(#paint0_linear_224_6387)"/>
<path d="M11.2412 19.8311C15.9062 17.7991 19.0162 16.4593 20.5712 15.8121C25.0162 13.9638 25.9387 13.6428 26.5412 13.6319C26.6737 13.6298 26.9687 13.6626 27.1612 13.8182C27.3212 13.9494 27.3662 14.1269 27.3887 14.2516C27.4087 14.3761 27.4362 14.6598 27.4137 14.8813C27.1737 17.4113 26.1312 23.5508 25.6012 26.3846C25.3787 27.5836 24.9362 27.9856 24.5087 28.0248C23.5787 28.1103 22.8737 27.4108 21.9737 26.8211C20.5662 25.8978 19.7712 25.3233 18.4037 24.4226C16.8237 23.3816 17.8487 22.8093 18.7487 21.8743C18.9837 21.6296 23.0787 17.9058 23.1562 17.5681C23.1662 17.5258 23.1762 17.3683 23.0812 17.2853C22.9887 17.2021 22.8512 17.2306 22.7512 17.2531C22.6087 17.2851 20.3612 18.7721 16.0012 21.7138C15.3637 22.1523 14.7862 22.3661 14.2662 22.3548C13.6962 22.3426 12.5962 22.0318 11.7787 21.7663C10.7787 21.4406 9.98116 21.2683 10.0512 20.7151C10.0862 20.4271 10.4837 20.1323 11.2412 19.8311Z" fill="white"/>
<defs>
<linearGradient id="paint0_linear_224_6387" x1="1670" y1="3.3335" x2="1670" y2="3336.67" gradientUnits="userSpaceOnUse">
<stop stop-color="#2AABEE"/>
<stop offset="1" stop-color="#229ED9"/>
</linearGradient>
</defs>
</svg>
