<svg width="24" height="24" viewBox="0 0 24 24" fill="none" xmlns="http://www.w3.org/2000/svg">
<path d="M15.073 2H8.937C3.333 2 2 3.333 2 8.927V15.063C2 20.666 3.323 22 8.927 22H15.063C20.666 22 22 20.677 22 15.073V8.937C22 3.333 20.677 2 15.073 2Z" fill="url(#paint0_linear_169_950)"/>
<path d="M16.9598 7.03704C16.3148 6.38879 15.5466 5.87481 14.6998 5.52508C13.8531 5.17535 12.9449 4.99686 12.0281 5.00004C8.18693 5.00004 5.05628 8.11503 5.05628 11.937C5.05628 13.162 5.3799 14.352 5.98492 15.402L5 19L8.69347 18.034C9.71357 18.587 10.8603 18.881 12.0281 18.881C15.8693 18.881 19 15.766 19 11.944C19 10.089 18.2754 8.34603 16.9598 7.03704ZM12.0281 17.705C10.9869 17.705 9.96683 17.425 9.07337 16.9L8.86231 16.774L6.66734 17.348L7.25126 15.22L7.11055 15.003C6.53208 14.0839 6.22492 13.0215 6.22412 11.937C6.22412 8.75903 8.82714 6.16904 12.0211 6.16904C13.5688 6.16904 15.0251 6.77104 16.1156 7.86303C16.6555 8.39781 17.0834 9.03389 17.3744 9.73443C17.6655 10.435 17.8139 11.186 17.8111 11.944C17.8251 15.122 15.2221 17.705 12.0281 17.705ZM15.208 13.393C15.0322 13.309 14.1739 12.889 14.0191 12.826C13.8573 12.77 13.7447 12.742 13.6251 12.91C13.5055 13.085 13.1749 13.477 13.0764 13.589C12.9779 13.708 12.8724 13.722 12.6965 13.631C12.5206 13.547 11.9578 13.358 11.2965 12.77C10.7759 12.308 10.4312 11.741 10.3256 11.566C10.2271 11.391 10.3116 11.3 10.403 11.209C10.4804 11.132 10.5789 11.006 10.6633 10.908C10.7477 10.81 10.7829 10.733 10.8392 10.621C10.8955 10.502 10.8673 10.404 10.8251 10.32C10.7829 10.236 10.4312 9.38203 10.2905 9.03203C10.1497 8.69603 10.002 8.73803 9.89648 8.73103H9.55879C9.4392 8.73103 9.25628 8.77303 9.09447 8.94803C8.9397 9.12303 8.48945 9.54303 8.48945 10.397C8.48945 11.251 9.11558 12.077 9.2 12.189C9.28442 12.308 10.4312 14.058 12.1759 14.807C12.591 14.989 12.9146 15.094 13.1678 15.171C13.5829 15.304 13.9628 15.283 14.2653 15.241C14.603 15.192 15.2995 14.821 15.4402 14.415C15.5879 14.009 15.5879 13.666 15.5387 13.589C15.4894 13.512 15.3839 13.477 15.208 13.393Z" fill="white"/>
<defs>
<linearGradient id="paint0_linear_169_950" x1="12" y1="2" x2="12" y2="22" gradientUnits="userSpaceOnUse">
<stop stop-color="#9BF18C"/>
<stop offset="1" stop-color="#59C13C"/>
</linearGradient>
</defs>
</svg>
