<svg width="41" height="40" viewBox="0 0 41 40" fill="none" xmlns="http://www.w3.org/2000/svg">
<path d="M35.6261 11.9102C35.4425 11.2318 35.0844 10.6134 34.5875 10.1165C34.0905 9.61965 33.4721 9.26161 32.7938 9.07808C30.3102 8.40088 20.3159 8.40088 20.3159 8.40088C20.3159 8.40088 10.3211 8.42143 7.83798 9.09863C7.15967 9.28219 6.54128 9.64024 6.04438 10.1371C5.54749 10.634 5.18944 11.2524 5.00588 11.9307C4.2547 16.3433 3.96327 23.0666 5.02643 27.3024C5.20999 27.9807 5.56804 28.5991 6.06494 29.096C6.56183 29.5929 7.18022 29.9509 7.85854 30.1345C10.3419 30.8117 20.3364 30.8117 20.3364 30.8117C20.3364 30.8117 30.331 30.8117 32.8143 30.1345C33.4926 29.9509 34.111 29.5929 34.6079 29.096C35.1048 28.5991 35.4629 27.9807 35.6464 27.3024C36.4385 22.8837 36.6828 16.1646 35.6259 11.9104L35.6261 11.9102Z" fill="#FF0000"/>
<path d="M17.1367 24.4084L25.4279 19.6062L17.1367 14.8037V24.4084Z" fill="white"/>
</svg>
